<mxfile host="65bd71144e">
    <diagram id="9rT6dfqN0q0wVJSjsVR8" name="ページ1">
        <mxGraphModel dx="1104" dy="860" grid="1" gridSize="10" guides="1" tooltips="1" connect="1" arrows="1" fold="1" page="1" pageScale="1" pageWidth="827" pageHeight="1169" math="0" shadow="0">
            <root>
                <mxCell id="0"/>
                <mxCell id="1" parent="0"/>
                <mxCell id="3" value="" style="rounded=0;whiteSpace=wrap;html=1;" vertex="1" parent="1">
                    <mxGeometry x="40" y="40" width="320" height="360" as="geometry"/>
                </mxCell>
                <mxCell id="22" value="" style="group" vertex="1" connectable="0" parent="1">
                    <mxGeometry x="130" y="130" width="290" height="330" as="geometry"/>
                </mxCell>
                <mxCell id="28" value="" style="group" vertex="1" connectable="0" parent="22">
                    <mxGeometry x="-10" y="-40" width="160" height="235" as="geometry"/>
                </mxCell>
                <mxCell id="10" value="" style="group" vertex="1" connectable="0" parent="28">
                    <mxGeometry y="40" width="160" height="100" as="geometry"/>
                </mxCell>
                <mxCell id="6" value="" style="group" vertex="1" connectable="0" parent="10">
                    <mxGeometry width="160" height="40" as="geometry"/>
                </mxCell>
                <mxCell id="4" value="" style="rounded=1;whiteSpace=wrap;html=1;" vertex="1" parent="6">
                    <mxGeometry y="20" width="160" height="20" as="geometry"/>
                </mxCell>
                <mxCell id="5" value="メールアドレス" style="text;html=1;strokeColor=none;fillColor=none;align=left;verticalAlign=middle;whiteSpace=wrap;rounded=0;" vertex="1" parent="6">
                    <mxGeometry width="120" height="20" as="geometry"/>
                </mxCell>
                <mxCell id="7" value="" style="group" vertex="1" connectable="0" parent="10">
                    <mxGeometry y="50" width="160" height="40" as="geometry"/>
                </mxCell>
                <mxCell id="8" value="" style="rounded=1;whiteSpace=wrap;html=1;" vertex="1" parent="7">
                    <mxGeometry y="20" width="160" height="20" as="geometry"/>
                </mxCell>
                <mxCell id="9" value="パスワード" style="text;html=1;strokeColor=none;fillColor=none;align=left;verticalAlign=middle;whiteSpace=wrap;rounded=0;" vertex="1" parent="7">
                    <mxGeometry width="120" height="20" as="geometry"/>
                </mxCell>
                <mxCell id="11" value="ログイン" style="text;html=1;strokeColor=none;fillColor=none;align=left;verticalAlign=middle;whiteSpace=wrap;rounded=0;fontStyle=1;fontSize=16;" vertex="1" parent="28">
                    <mxGeometry x="45" width="70" height="30" as="geometry"/>
                </mxCell>
                <mxCell id="12" value="&lt;font style=&quot;font-size: 12px&quot;&gt;ログイン&lt;/font&gt;" style="rounded=1;whiteSpace=wrap;html=1;fontSize=16;fontStyle=1" vertex="1" parent="28">
                    <mxGeometry y="145" width="160" height="20" as="geometry"/>
                </mxCell>
                <mxCell id="16" value="&lt;font style=&quot;font-size: 12px&quot;&gt;新規登録&lt;/font&gt;" style="rounded=1;whiteSpace=wrap;html=1;fontSize=16;" vertex="1" parent="28">
                    <mxGeometry y="185" width="160" height="20" as="geometry"/>
                </mxCell>
                <mxCell id="18" value="or" style="text;html=1;strokeColor=none;fillColor=none;align=left;verticalAlign=middle;whiteSpace=wrap;rounded=0;" vertex="1" parent="28">
                    <mxGeometry x="75" y="165" width="10" height="20" as="geometry"/>
                </mxCell>
                <mxCell id="21" value="パスワードを忘れた方" style="text;html=1;strokeColor=none;fillColor=none;align=left;verticalAlign=middle;whiteSpace=wrap;rounded=0;" vertex="1" parent="28">
                    <mxGeometry x="15" y="215" width="130" height="20" as="geometry"/>
                </mxCell>
                <mxCell id="31" value="ログインページ" style="text;html=1;strokeColor=none;fillColor=none;align=left;verticalAlign=middle;whiteSpace=wrap;rounded=0;fontSize=12;" vertex="1" parent="1">
                    <mxGeometry x="40" y="10" width="130" height="30" as="geometry"/>
                </mxCell>
                <mxCell id="32" value="" style="rounded=0;whiteSpace=wrap;html=1;" vertex="1" parent="1">
                    <mxGeometry x="440" y="40" width="320" height="360" as="geometry"/>
                </mxCell>
                <mxCell id="33" value="" style="group" vertex="1" connectable="0" parent="1">
                    <mxGeometry x="520" y="90" width="160" height="235" as="geometry"/>
                </mxCell>
                <mxCell id="34" value="" style="group" vertex="1" connectable="0" parent="33">
                    <mxGeometry y="40" width="160" height="100" as="geometry"/>
                </mxCell>
                <mxCell id="35" value="" style="group" vertex="1" connectable="0" parent="34">
                    <mxGeometry width="160" height="40" as="geometry"/>
                </mxCell>
                <mxCell id="36" value="" style="rounded=1;whiteSpace=wrap;html=1;" vertex="1" parent="35">
                    <mxGeometry y="20" width="160" height="20" as="geometry"/>
                </mxCell>
                <mxCell id="37" value="メールアドレス" style="text;html=1;strokeColor=none;fillColor=none;align=left;verticalAlign=middle;whiteSpace=wrap;rounded=0;" vertex="1" parent="35">
                    <mxGeometry width="120" height="20" as="geometry"/>
                </mxCell>
                <mxCell id="38" value="" style="group" vertex="1" connectable="0" parent="34">
                    <mxGeometry y="50" width="160" height="40" as="geometry"/>
                </mxCell>
                <mxCell id="39" value="" style="rounded=1;whiteSpace=wrap;html=1;" vertex="1" parent="38">
                    <mxGeometry y="20" width="160" height="20" as="geometry"/>
                </mxCell>
                <mxCell id="40" value="パスワード" style="text;html=1;strokeColor=none;fillColor=none;align=left;verticalAlign=middle;whiteSpace=wrap;rounded=0;" vertex="1" parent="38">
                    <mxGeometry width="120" height="20" as="geometry"/>
                </mxCell>
                <mxCell id="41" value="新規登録" style="text;html=1;strokeColor=none;fillColor=none;align=left;verticalAlign=middle;whiteSpace=wrap;rounded=0;fontStyle=1;fontSize=16;" vertex="1" parent="33">
                    <mxGeometry x="45" width="70" height="30" as="geometry"/>
                </mxCell>
                <mxCell id="43" value="&lt;font style=&quot;font-size: 12px&quot;&gt;新規登録&lt;/font&gt;" style="rounded=1;whiteSpace=wrap;html=1;fontSize=16;" vertex="1" parent="33">
                    <mxGeometry y="150" width="160" height="20" as="geometry"/>
                </mxCell>
                <mxCell id="46" value="新規登録ページ" style="text;html=1;strokeColor=none;fillColor=none;align=left;verticalAlign=middle;whiteSpace=wrap;rounded=0;fontSize=12;" vertex="1" parent="1">
                    <mxGeometry x="440" y="10" width="130" height="30" as="geometry"/>
                </mxCell>
                <mxCell id="49" value="" style="rounded=0;whiteSpace=wrap;html=1;" vertex="1" parent="1">
                    <mxGeometry x="40" y="480" width="320" height="660" as="geometry"/>
                </mxCell>
                <mxCell id="53" value="" style="group" vertex="1" connectable="0" parent="1">
                    <mxGeometry x="110" y="490" width="110" height="20" as="geometry"/>
                </mxCell>
                <mxCell id="50" value="2022年度" style="rounded=1;whiteSpace=wrap;html=1;fontSize=12;" vertex="1" parent="53">
                    <mxGeometry width="110" height="20" as="geometry"/>
                </mxCell>
                <mxCell id="51" value="" style="triangle;whiteSpace=wrap;html=1;fontSize=12;direction=south;" vertex="1" parent="53">
                    <mxGeometry x="90" y="5" width="10" height="10" as="geometry"/>
                </mxCell>
                <mxCell id="55" value="＋追加" style="rounded=1;whiteSpace=wrap;html=1;fontSize=12;" vertex="1" parent="1">
                    <mxGeometry x="240" y="490" width="60" height="20" as="geometry"/>
                </mxCell>
                <mxCell id="66" value="" style="edgeStyle=none;html=1;fontSize=12;entryX=0;entryY=0.25;entryDx=0;entryDy=0;" edge="1" parent="1" source="16" target="32">
                    <mxGeometry relative="1" as="geometry">
                        <mxPoint x="380" y="285" as="targetPoint"/>
                        <Array as="points">
                            <mxPoint x="400" y="285"/>
                            <mxPoint x="400" y="130"/>
                        </Array>
                    </mxGeometry>
                </mxCell>
                <mxCell id="67" value="" style="group" vertex="1" connectable="0" parent="1">
                    <mxGeometry x="65" y="520" width="270" height="55" as="geometry"/>
                </mxCell>
                <mxCell id="57" value="" style="rounded=0;whiteSpace=wrap;html=1;fontSize=12;" vertex="1" parent="67">
                    <mxGeometry width="270" height="55" as="geometry"/>
                </mxCell>
                <mxCell id="60" value="&lt;div&gt;&lt;span&gt;&lt;b&gt;収入&lt;/b&gt;&lt;/span&gt;&lt;/div&gt;&lt;b&gt;200,000円&lt;/b&gt;" style="text;html=1;strokeColor=none;fillColor=none;align=center;verticalAlign=middle;whiteSpace=wrap;rounded=0;" vertex="1" parent="67">
                    <mxGeometry y="7.5" width="80" height="40" as="geometry"/>
                </mxCell>
                <mxCell id="63" value="&lt;div&gt;&lt;span&gt;&lt;b&gt;控除&lt;/b&gt;&lt;/span&gt;&lt;/div&gt;&lt;b&gt;100,000円&lt;/b&gt;" style="text;html=1;strokeColor=none;fillColor=none;align=center;verticalAlign=middle;whiteSpace=wrap;rounded=0;" vertex="1" parent="67">
                    <mxGeometry x="95" y="7.5" width="80" height="40" as="geometry"/>
                </mxCell>
                <mxCell id="64" value="&lt;div&gt;&lt;b&gt;手取り&lt;/b&gt;&lt;/div&gt;&lt;b&gt;100,000円&lt;/b&gt;" style="text;html=1;strokeColor=none;fillColor=none;align=center;verticalAlign=middle;whiteSpace=wrap;rounded=0;" vertex="1" parent="67">
                    <mxGeometry x="190" y="7.5" width="80" height="40" as="geometry"/>
                </mxCell>
                <mxCell id="249" value="" style="edgeStyle=none;html=1;fontSize=12;exitX=1;exitY=0.5;exitDx=0;exitDy=0;entryX=-0.006;entryY=0.06;entryDx=0;entryDy=0;entryPerimeter=0;" edge="1" parent="1" source="78" target="145">
                    <mxGeometry relative="1" as="geometry">
                        <mxPoint x="490" y="850.5" as="targetPoint"/>
                        <Array as="points">
                            <mxPoint x="400" y="646"/>
                            <mxPoint x="400" y="523"/>
                        </Array>
                    </mxGeometry>
                </mxCell>
                <mxCell id="73" value="" style="shape=table;html=1;whiteSpace=wrap;startSize=0;container=1;collapsible=0;childLayout=tableLayout;columnLines=0;rowLines=0;fontSize=12;" vertex="1" parent="1">
                    <mxGeometry x="65" y="585" width="270" height="531" as="geometry"/>
                </mxCell>
                <mxCell id="74" value="" style="shape=partialRectangle;html=1;whiteSpace=wrap;collapsible=0;dropTarget=0;pointerEvents=0;fillColor=none;top=0;left=0;bottom=0;right=0;points=[[0,0.5],[1,0.5]];portConstraint=eastwest;fontSize=12;" vertex="1" parent="73">
                    <mxGeometry width="270" height="41" as="geometry"/>
                </mxCell>
                <mxCell id="75" value="月" style="shape=partialRectangle;html=1;whiteSpace=wrap;connectable=0;fillColor=none;top=0;left=0;bottom=0;right=0;overflow=hidden;pointerEvents=1;fontSize=12;" vertex="1" parent="74">
                    <mxGeometry width="68" height="41" as="geometry">
                        <mxRectangle width="68" height="41" as="alternateBounds"/>
                    </mxGeometry>
                </mxCell>
                <mxCell id="76" value="収入" style="shape=partialRectangle;html=1;whiteSpace=wrap;connectable=0;fillColor=none;top=0;left=0;bottom=0;right=0;overflow=hidden;pointerEvents=1;fontSize=12;" vertex="1" parent="74">
                    <mxGeometry x="68" width="67" height="41" as="geometry">
                        <mxRectangle width="67" height="41" as="alternateBounds"/>
                    </mxGeometry>
                </mxCell>
                <mxCell id="77" value="控除" style="shape=partialRectangle;html=1;whiteSpace=wrap;connectable=0;fillColor=none;top=0;left=0;bottom=0;right=0;overflow=hidden;pointerEvents=1;fontSize=12;" vertex="1" parent="74">
                    <mxGeometry x="135" width="68" height="41" as="geometry">
                        <mxRectangle width="68" height="41" as="alternateBounds"/>
                    </mxGeometry>
                </mxCell>
                <mxCell id="86" value="手取り" style="shape=partialRectangle;html=1;whiteSpace=wrap;connectable=0;fillColor=none;top=0;left=0;bottom=0;right=0;overflow=hidden;pointerEvents=1;fontSize=12;" vertex="1" parent="74">
                    <mxGeometry x="203" width="67" height="41" as="geometry">
                        <mxRectangle width="67" height="41" as="alternateBounds"/>
                    </mxGeometry>
                </mxCell>
                <mxCell id="78" value="" style="shape=partialRectangle;html=1;whiteSpace=wrap;collapsible=0;dropTarget=0;pointerEvents=0;fillColor=none;top=0;left=0;bottom=0;right=0;points=[[0,0.5],[1,0.5]];portConstraint=eastwest;fontSize=12;" vertex="1" parent="73">
                    <mxGeometry y="41" width="270" height="39" as="geometry"/>
                </mxCell>
                <mxCell id="79" value="1月" style="shape=partialRectangle;html=1;whiteSpace=wrap;connectable=0;fillColor=none;top=0;left=0;bottom=0;right=0;overflow=hidden;pointerEvents=1;fontSize=12;" vertex="1" parent="78">
                    <mxGeometry width="68" height="39" as="geometry">
                        <mxRectangle width="68" height="39" as="alternateBounds"/>
                    </mxGeometry>
                </mxCell>
                <mxCell id="80" value="200,000円" style="shape=partialRectangle;html=1;whiteSpace=wrap;connectable=0;fillColor=none;top=0;left=0;bottom=0;right=0;overflow=hidden;pointerEvents=1;fontSize=12;" vertex="1" parent="78">
                    <mxGeometry x="68" width="67" height="39" as="geometry">
                        <mxRectangle width="67" height="39" as="alternateBounds"/>
                    </mxGeometry>
                </mxCell>
                <mxCell id="81" value="100,000円" style="shape=partialRectangle;html=1;whiteSpace=wrap;connectable=0;fillColor=none;top=0;left=0;bottom=0;right=0;overflow=hidden;pointerEvents=1;fontSize=12;" vertex="1" parent="78">
                    <mxGeometry x="135" width="68" height="39" as="geometry">
                        <mxRectangle width="68" height="39" as="alternateBounds"/>
                    </mxGeometry>
                </mxCell>
                <mxCell id="87" value="&lt;span&gt;100,000円&lt;/span&gt;" style="shape=partialRectangle;html=1;whiteSpace=wrap;connectable=0;fillColor=none;top=0;left=0;bottom=0;right=0;overflow=hidden;pointerEvents=1;fontSize=12;" vertex="1" parent="78">
                    <mxGeometry x="203" width="67" height="39" as="geometry">
                        <mxRectangle width="67" height="39" as="alternateBounds"/>
                    </mxGeometry>
                </mxCell>
                <mxCell id="82" value="" style="shape=partialRectangle;html=1;whiteSpace=wrap;collapsible=0;dropTarget=0;pointerEvents=0;fillColor=none;top=0;left=0;bottom=0;right=0;points=[[0,0.5],[1,0.5]];portConstraint=eastwest;fontSize=12;" vertex="1" parent="73">
                    <mxGeometry y="80" width="270" height="41" as="geometry"/>
                </mxCell>
                <mxCell id="83" value="2月" style="shape=partialRectangle;html=1;whiteSpace=wrap;connectable=0;fillColor=none;top=0;left=0;bottom=0;right=0;overflow=hidden;pointerEvents=1;fontSize=12;" vertex="1" parent="82">
                    <mxGeometry width="68" height="41" as="geometry">
                        <mxRectangle width="68" height="41" as="alternateBounds"/>
                    </mxGeometry>
                </mxCell>
                <mxCell id="84" value="200,000円" style="shape=partialRectangle;html=1;whiteSpace=wrap;connectable=0;fillColor=none;top=0;left=0;bottom=0;right=0;overflow=hidden;pointerEvents=1;fontSize=12;" vertex="1" parent="82">
                    <mxGeometry x="68" width="67" height="41" as="geometry">
                        <mxRectangle width="67" height="41" as="alternateBounds"/>
                    </mxGeometry>
                </mxCell>
                <mxCell id="85" value="100,000円" style="shape=partialRectangle;html=1;whiteSpace=wrap;connectable=0;fillColor=none;top=0;left=0;bottom=0;right=0;overflow=hidden;pointerEvents=1;fontSize=12;" vertex="1" parent="82">
                    <mxGeometry x="135" width="68" height="41" as="geometry">
                        <mxRectangle width="68" height="41" as="alternateBounds"/>
                    </mxGeometry>
                </mxCell>
                <mxCell id="88" value="&lt;meta charset=&quot;utf-8&quot;&gt;&lt;span style=&quot;color: rgb(240, 240, 240); font-family: helvetica; font-size: 12px; font-style: normal; font-weight: 400; letter-spacing: normal; text-align: center; text-indent: 0px; text-transform: none; word-spacing: 0px; background-color: rgb(42, 42, 42); display: inline; float: none;&quot;&gt;100,000円&lt;/span&gt;" style="shape=partialRectangle;html=1;whiteSpace=wrap;connectable=0;fillColor=none;top=0;left=0;bottom=0;right=0;overflow=hidden;pointerEvents=1;fontSize=12;" vertex="1" parent="82">
                    <mxGeometry x="203" width="67" height="41" as="geometry">
                        <mxRectangle width="67" height="41" as="alternateBounds"/>
                    </mxGeometry>
                </mxCell>
                <mxCell id="89" style="shape=partialRectangle;html=1;whiteSpace=wrap;collapsible=0;dropTarget=0;pointerEvents=0;fillColor=none;top=0;left=0;bottom=0;right=0;points=[[0,0.5],[1,0.5]];portConstraint=eastwest;fontSize=12;" vertex="1" parent="73">
                    <mxGeometry y="121" width="270" height="41" as="geometry"/>
                </mxCell>
                <mxCell id="90" value="3月" style="shape=partialRectangle;html=1;whiteSpace=wrap;connectable=0;fillColor=none;top=0;left=0;bottom=0;right=0;overflow=hidden;pointerEvents=1;fontSize=12;" vertex="1" parent="89">
                    <mxGeometry width="68" height="41" as="geometry">
                        <mxRectangle width="68" height="41" as="alternateBounds"/>
                    </mxGeometry>
                </mxCell>
                <mxCell id="91" value="&lt;span&gt;200,000円&lt;/span&gt;" style="shape=partialRectangle;html=1;whiteSpace=wrap;connectable=0;fillColor=none;top=0;left=0;bottom=0;right=0;overflow=hidden;pointerEvents=1;fontSize=12;" vertex="1" parent="89">
                    <mxGeometry x="68" width="67" height="41" as="geometry">
                        <mxRectangle width="67" height="41" as="alternateBounds"/>
                    </mxGeometry>
                </mxCell>
                <mxCell id="92" value="&lt;meta charset=&quot;utf-8&quot;&gt;&lt;span style=&quot;color: rgb(240, 240, 240); font-family: helvetica; font-size: 12px; font-style: normal; font-weight: 400; letter-spacing: normal; text-align: center; text-indent: 0px; text-transform: none; word-spacing: 0px; background-color: rgb(42, 42, 42); display: inline; float: none;&quot;&gt;100,000円&lt;/span&gt;" style="shape=partialRectangle;html=1;whiteSpace=wrap;connectable=0;fillColor=none;top=0;left=0;bottom=0;right=0;overflow=hidden;pointerEvents=1;fontSize=12;" vertex="1" parent="89">
                    <mxGeometry x="135" width="68" height="41" as="geometry">
                        <mxRectangle width="68" height="41" as="alternateBounds"/>
                    </mxGeometry>
                </mxCell>
                <mxCell id="93" value="&lt;meta charset=&quot;utf-8&quot;&gt;&lt;span style=&quot;color: rgb(240, 240, 240); font-family: helvetica; font-size: 12px; font-style: normal; font-weight: 400; letter-spacing: normal; text-align: center; text-indent: 0px; text-transform: none; word-spacing: 0px; background-color: rgb(42, 42, 42); display: inline; float: none;&quot;&gt;100,000円&lt;/span&gt;" style="shape=partialRectangle;html=1;whiteSpace=wrap;connectable=0;fillColor=none;top=0;left=0;bottom=0;right=0;overflow=hidden;pointerEvents=1;fontSize=12;" vertex="1" parent="89">
                    <mxGeometry x="203" width="67" height="41" as="geometry">
                        <mxRectangle width="67" height="41" as="alternateBounds"/>
                    </mxGeometry>
                </mxCell>
                <mxCell id="94" style="shape=partialRectangle;html=1;whiteSpace=wrap;collapsible=0;dropTarget=0;pointerEvents=0;fillColor=none;top=0;left=0;bottom=0;right=0;points=[[0,0.5],[1,0.5]];portConstraint=eastwest;fontSize=12;" vertex="1" parent="73">
                    <mxGeometry y="162" width="270" height="41" as="geometry"/>
                </mxCell>
                <mxCell id="95" value="4月" style="shape=partialRectangle;html=1;whiteSpace=wrap;connectable=0;fillColor=none;top=0;left=0;bottom=0;right=0;overflow=hidden;pointerEvents=1;fontSize=12;" vertex="1" parent="94">
                    <mxGeometry width="68" height="41" as="geometry">
                        <mxRectangle width="68" height="41" as="alternateBounds"/>
                    </mxGeometry>
                </mxCell>
                <mxCell id="96" value="&lt;span&gt;200,000円&lt;/span&gt;" style="shape=partialRectangle;html=1;whiteSpace=wrap;connectable=0;fillColor=none;top=0;left=0;bottom=0;right=0;overflow=hidden;pointerEvents=1;fontSize=12;" vertex="1" parent="94">
                    <mxGeometry x="68" width="67" height="41" as="geometry">
                        <mxRectangle width="67" height="41" as="alternateBounds"/>
                    </mxGeometry>
                </mxCell>
                <mxCell id="97" value="&lt;meta charset=&quot;utf-8&quot;&gt;&lt;span style=&quot;color: rgb(240, 240, 240); font-family: helvetica; font-size: 12px; font-style: normal; font-weight: 400; letter-spacing: normal; text-align: center; text-indent: 0px; text-transform: none; word-spacing: 0px; background-color: rgb(42, 42, 42); display: inline; float: none;&quot;&gt;100,000円&lt;/span&gt;" style="shape=partialRectangle;html=1;whiteSpace=wrap;connectable=0;fillColor=none;top=0;left=0;bottom=0;right=0;overflow=hidden;pointerEvents=1;fontSize=12;" vertex="1" parent="94">
                    <mxGeometry x="135" width="68" height="41" as="geometry">
                        <mxRectangle width="68" height="41" as="alternateBounds"/>
                    </mxGeometry>
                </mxCell>
                <mxCell id="98" value="&lt;meta charset=&quot;utf-8&quot;&gt;&lt;span style=&quot;color: rgb(240, 240, 240); font-family: helvetica; font-size: 12px; font-style: normal; font-weight: 400; letter-spacing: normal; text-align: center; text-indent: 0px; text-transform: none; word-spacing: 0px; background-color: rgb(42, 42, 42); display: inline; float: none;&quot;&gt;100,000円&lt;/span&gt;" style="shape=partialRectangle;html=1;whiteSpace=wrap;connectable=0;fillColor=none;top=0;left=0;bottom=0;right=0;overflow=hidden;pointerEvents=1;fontSize=12;" vertex="1" parent="94">
                    <mxGeometry x="203" width="67" height="41" as="geometry">
                        <mxRectangle width="67" height="41" as="alternateBounds"/>
                    </mxGeometry>
                </mxCell>
                <mxCell id="99" style="shape=partialRectangle;html=1;whiteSpace=wrap;collapsible=0;dropTarget=0;pointerEvents=0;fillColor=none;top=0;left=0;bottom=0;right=0;points=[[0,0.5],[1,0.5]];portConstraint=eastwest;fontSize=12;" vertex="1" parent="73">
                    <mxGeometry y="203" width="270" height="40" as="geometry"/>
                </mxCell>
                <mxCell id="100" value="5月" style="shape=partialRectangle;html=1;whiteSpace=wrap;connectable=0;fillColor=none;top=0;left=0;bottom=0;right=0;overflow=hidden;pointerEvents=1;fontSize=12;" vertex="1" parent="99">
                    <mxGeometry width="68" height="40" as="geometry">
                        <mxRectangle width="68" height="40" as="alternateBounds"/>
                    </mxGeometry>
                </mxCell>
                <mxCell id="101" value="&lt;span&gt;200,000円&lt;/span&gt;" style="shape=partialRectangle;html=1;whiteSpace=wrap;connectable=0;fillColor=none;top=0;left=0;bottom=0;right=0;overflow=hidden;pointerEvents=1;fontSize=12;" vertex="1" parent="99">
                    <mxGeometry x="68" width="67" height="40" as="geometry">
                        <mxRectangle width="67" height="40" as="alternateBounds"/>
                    </mxGeometry>
                </mxCell>
                <mxCell id="102" value="&lt;meta charset=&quot;utf-8&quot;&gt;&lt;span style=&quot;color: rgb(240, 240, 240); font-family: helvetica; font-size: 12px; font-style: normal; font-weight: 400; letter-spacing: normal; text-align: center; text-indent: 0px; text-transform: none; word-spacing: 0px; background-color: rgb(42, 42, 42); display: inline; float: none;&quot;&gt;100,000円&lt;/span&gt;" style="shape=partialRectangle;html=1;whiteSpace=wrap;connectable=0;fillColor=none;top=0;left=0;bottom=0;right=0;overflow=hidden;pointerEvents=1;fontSize=12;" vertex="1" parent="99">
                    <mxGeometry x="135" width="68" height="40" as="geometry">
                        <mxRectangle width="68" height="40" as="alternateBounds"/>
                    </mxGeometry>
                </mxCell>
                <mxCell id="103" value="&lt;meta charset=&quot;utf-8&quot;&gt;&lt;span style=&quot;color: rgb(240, 240, 240); font-family: helvetica; font-size: 12px; font-style: normal; font-weight: 400; letter-spacing: normal; text-align: center; text-indent: 0px; text-transform: none; word-spacing: 0px; background-color: rgb(42, 42, 42); display: inline; float: none;&quot;&gt;100,000円&lt;/span&gt;" style="shape=partialRectangle;html=1;whiteSpace=wrap;connectable=0;fillColor=none;top=0;left=0;bottom=0;right=0;overflow=hidden;pointerEvents=1;fontSize=12;" vertex="1" parent="99">
                    <mxGeometry x="203" width="67" height="40" as="geometry">
                        <mxRectangle width="67" height="40" as="alternateBounds"/>
                    </mxGeometry>
                </mxCell>
                <mxCell id="104" style="shape=partialRectangle;html=1;whiteSpace=wrap;collapsible=0;dropTarget=0;pointerEvents=0;fillColor=none;top=0;left=0;bottom=0;right=0;points=[[0,0.5],[1,0.5]];portConstraint=eastwest;fontSize=12;" vertex="1" parent="73">
                    <mxGeometry y="243" width="270" height="41" as="geometry"/>
                </mxCell>
                <mxCell id="105" value="6月" style="shape=partialRectangle;html=1;whiteSpace=wrap;connectable=0;fillColor=none;top=0;left=0;bottom=0;right=0;overflow=hidden;pointerEvents=1;fontSize=12;" vertex="1" parent="104">
                    <mxGeometry width="68" height="41" as="geometry">
                        <mxRectangle width="68" height="41" as="alternateBounds"/>
                    </mxGeometry>
                </mxCell>
                <mxCell id="106" value="&lt;span&gt;200,000円&lt;/span&gt;" style="shape=partialRectangle;html=1;whiteSpace=wrap;connectable=0;fillColor=none;top=0;left=0;bottom=0;right=0;overflow=hidden;pointerEvents=1;fontSize=12;" vertex="1" parent="104">
                    <mxGeometry x="68" width="67" height="41" as="geometry">
                        <mxRectangle width="67" height="41" as="alternateBounds"/>
                    </mxGeometry>
                </mxCell>
                <mxCell id="107" value="&lt;meta charset=&quot;utf-8&quot;&gt;&lt;span style=&quot;color: rgb(240, 240, 240); font-family: helvetica; font-size: 12px; font-style: normal; font-weight: 400; letter-spacing: normal; text-align: center; text-indent: 0px; text-transform: none; word-spacing: 0px; background-color: rgb(42, 42, 42); display: inline; float: none;&quot;&gt;100,000円&lt;/span&gt;" style="shape=partialRectangle;html=1;whiteSpace=wrap;connectable=0;fillColor=none;top=0;left=0;bottom=0;right=0;overflow=hidden;pointerEvents=1;fontSize=12;" vertex="1" parent="104">
                    <mxGeometry x="135" width="68" height="41" as="geometry">
                        <mxRectangle width="68" height="41" as="alternateBounds"/>
                    </mxGeometry>
                </mxCell>
                <mxCell id="108" value="&lt;meta charset=&quot;utf-8&quot;&gt;&lt;span style=&quot;color: rgb(240, 240, 240); font-family: helvetica; font-size: 12px; font-style: normal; font-weight: 400; letter-spacing: normal; text-align: center; text-indent: 0px; text-transform: none; word-spacing: 0px; background-color: rgb(42, 42, 42); display: inline; float: none;&quot;&gt;100,000円&lt;/span&gt;" style="shape=partialRectangle;html=1;whiteSpace=wrap;connectable=0;fillColor=none;top=0;left=0;bottom=0;right=0;overflow=hidden;pointerEvents=1;fontSize=12;" vertex="1" parent="104">
                    <mxGeometry x="203" width="67" height="41" as="geometry">
                        <mxRectangle width="67" height="41" as="alternateBounds"/>
                    </mxGeometry>
                </mxCell>
                <mxCell id="109" style="shape=partialRectangle;html=1;whiteSpace=wrap;collapsible=0;dropTarget=0;pointerEvents=0;fillColor=none;top=0;left=0;bottom=0;right=0;points=[[0,0.5],[1,0.5]];portConstraint=eastwest;fontSize=12;" vertex="1" parent="73">
                    <mxGeometry y="284" width="270" height="41" as="geometry"/>
                </mxCell>
                <mxCell id="110" value="7月" style="shape=partialRectangle;html=1;whiteSpace=wrap;connectable=0;fillColor=none;top=0;left=0;bottom=0;right=0;overflow=hidden;pointerEvents=1;fontSize=12;" vertex="1" parent="109">
                    <mxGeometry width="68" height="41" as="geometry">
                        <mxRectangle width="68" height="41" as="alternateBounds"/>
                    </mxGeometry>
                </mxCell>
                <mxCell id="111" value="&lt;meta charset=&quot;utf-8&quot;&gt;&lt;span style=&quot;color: rgb(240, 240, 240); font-family: helvetica; font-size: 12px; font-style: normal; font-weight: 400; letter-spacing: normal; text-align: center; text-indent: 0px; text-transform: none; word-spacing: 0px; background-color: rgb(42, 42, 42); display: inline; float: none;&quot;&gt;200,000円&lt;/span&gt;" style="shape=partialRectangle;html=1;whiteSpace=wrap;connectable=0;fillColor=none;top=0;left=0;bottom=0;right=0;overflow=hidden;pointerEvents=1;fontSize=12;" vertex="1" parent="109">
                    <mxGeometry x="68" width="67" height="41" as="geometry">
                        <mxRectangle width="67" height="41" as="alternateBounds"/>
                    </mxGeometry>
                </mxCell>
                <mxCell id="112" value="&lt;meta charset=&quot;utf-8&quot;&gt;&lt;span style=&quot;color: rgb(240, 240, 240); font-family: helvetica; font-size: 12px; font-style: normal; font-weight: 400; letter-spacing: normal; text-align: center; text-indent: 0px; text-transform: none; word-spacing: 0px; background-color: rgb(42, 42, 42); display: inline; float: none;&quot;&gt;100,000円&lt;/span&gt;" style="shape=partialRectangle;html=1;whiteSpace=wrap;connectable=0;fillColor=none;top=0;left=0;bottom=0;right=0;overflow=hidden;pointerEvents=1;fontSize=12;" vertex="1" parent="109">
                    <mxGeometry x="135" width="68" height="41" as="geometry">
                        <mxRectangle width="68" height="41" as="alternateBounds"/>
                    </mxGeometry>
                </mxCell>
                <mxCell id="113" value="&lt;meta charset=&quot;utf-8&quot;&gt;&lt;span style=&quot;color: rgb(240, 240, 240); font-family: helvetica; font-size: 12px; font-style: normal; font-weight: 400; letter-spacing: normal; text-align: center; text-indent: 0px; text-transform: none; word-spacing: 0px; background-color: rgb(42, 42, 42); display: inline; float: none;&quot;&gt;100,000円&lt;/span&gt;" style="shape=partialRectangle;html=1;whiteSpace=wrap;connectable=0;fillColor=none;top=0;left=0;bottom=0;right=0;overflow=hidden;pointerEvents=1;fontSize=12;" vertex="1" parent="109">
                    <mxGeometry x="203" width="67" height="41" as="geometry">
                        <mxRectangle width="67" height="41" as="alternateBounds"/>
                    </mxGeometry>
                </mxCell>
                <mxCell id="114" style="shape=partialRectangle;html=1;whiteSpace=wrap;collapsible=0;dropTarget=0;pointerEvents=0;fillColor=none;top=0;left=0;bottom=0;right=0;points=[[0,0.5],[1,0.5]];portConstraint=eastwest;fontSize=12;" vertex="1" parent="73">
                    <mxGeometry y="325" width="270" height="40" as="geometry"/>
                </mxCell>
                <mxCell id="115" value="8月" style="shape=partialRectangle;html=1;whiteSpace=wrap;connectable=0;fillColor=none;top=0;left=0;bottom=0;right=0;overflow=hidden;pointerEvents=1;fontSize=12;" vertex="1" parent="114">
                    <mxGeometry width="68" height="40" as="geometry">
                        <mxRectangle width="68" height="40" as="alternateBounds"/>
                    </mxGeometry>
                </mxCell>
                <mxCell id="116" value="&lt;meta charset=&quot;utf-8&quot;&gt;&lt;span style=&quot;color: rgb(240, 240, 240); font-family: helvetica; font-size: 12px; font-style: normal; font-weight: 400; letter-spacing: normal; text-align: center; text-indent: 0px; text-transform: none; word-spacing: 0px; background-color: rgb(42, 42, 42); display: inline; float: none;&quot;&gt;200,000円&lt;/span&gt;" style="shape=partialRectangle;html=1;whiteSpace=wrap;connectable=0;fillColor=none;top=0;left=0;bottom=0;right=0;overflow=hidden;pointerEvents=1;fontSize=12;" vertex="1" parent="114">
                    <mxGeometry x="68" width="67" height="40" as="geometry">
                        <mxRectangle width="67" height="40" as="alternateBounds"/>
                    </mxGeometry>
                </mxCell>
                <mxCell id="117" value="&lt;meta charset=&quot;utf-8&quot;&gt;&lt;span style=&quot;color: rgb(240, 240, 240); font-family: helvetica; font-size: 12px; font-style: normal; font-weight: 400; letter-spacing: normal; text-align: center; text-indent: 0px; text-transform: none; word-spacing: 0px; background-color: rgb(42, 42, 42); display: inline; float: none;&quot;&gt;100,000円&lt;/span&gt;" style="shape=partialRectangle;html=1;whiteSpace=wrap;connectable=0;fillColor=none;top=0;left=0;bottom=0;right=0;overflow=hidden;pointerEvents=1;fontSize=12;" vertex="1" parent="114">
                    <mxGeometry x="135" width="68" height="40" as="geometry">
                        <mxRectangle width="68" height="40" as="alternateBounds"/>
                    </mxGeometry>
                </mxCell>
                <mxCell id="118" value="&lt;meta charset=&quot;utf-8&quot;&gt;&lt;span style=&quot;color: rgb(240, 240, 240); font-family: helvetica; font-size: 12px; font-style: normal; font-weight: 400; letter-spacing: normal; text-align: center; text-indent: 0px; text-transform: none; word-spacing: 0px; background-color: rgb(42, 42, 42); display: inline; float: none;&quot;&gt;100,000円&lt;/span&gt;" style="shape=partialRectangle;html=1;whiteSpace=wrap;connectable=0;fillColor=none;top=0;left=0;bottom=0;right=0;overflow=hidden;pointerEvents=1;fontSize=12;" vertex="1" parent="114">
                    <mxGeometry x="203" width="67" height="40" as="geometry">
                        <mxRectangle width="67" height="40" as="alternateBounds"/>
                    </mxGeometry>
                </mxCell>
                <mxCell id="119" style="shape=partialRectangle;html=1;whiteSpace=wrap;collapsible=0;dropTarget=0;pointerEvents=0;fillColor=none;top=0;left=0;bottom=0;right=0;points=[[0,0.5],[1,0.5]];portConstraint=eastwest;fontSize=12;" vertex="1" parent="73">
                    <mxGeometry y="365" width="270" height="41" as="geometry"/>
                </mxCell>
                <mxCell id="120" value="9月" style="shape=partialRectangle;html=1;whiteSpace=wrap;connectable=0;fillColor=none;top=0;left=0;bottom=0;right=0;overflow=hidden;pointerEvents=1;fontSize=12;" vertex="1" parent="119">
                    <mxGeometry width="68" height="41" as="geometry">
                        <mxRectangle width="68" height="41" as="alternateBounds"/>
                    </mxGeometry>
                </mxCell>
                <mxCell id="121" value="&lt;meta charset=&quot;utf-8&quot;&gt;&lt;span style=&quot;color: rgb(240, 240, 240); font-family: helvetica; font-size: 12px; font-style: normal; font-weight: 400; letter-spacing: normal; text-align: center; text-indent: 0px; text-transform: none; word-spacing: 0px; background-color: rgb(42, 42, 42); display: inline; float: none;&quot;&gt;200,000円&lt;/span&gt;" style="shape=partialRectangle;html=1;whiteSpace=wrap;connectable=0;fillColor=none;top=0;left=0;bottom=0;right=0;overflow=hidden;pointerEvents=1;fontSize=12;" vertex="1" parent="119">
                    <mxGeometry x="68" width="67" height="41" as="geometry">
                        <mxRectangle width="67" height="41" as="alternateBounds"/>
                    </mxGeometry>
                </mxCell>
                <mxCell id="122" value="&lt;meta charset=&quot;utf-8&quot;&gt;&lt;span style=&quot;color: rgb(240, 240, 240); font-family: helvetica; font-size: 12px; font-style: normal; font-weight: 400; letter-spacing: normal; text-align: center; text-indent: 0px; text-transform: none; word-spacing: 0px; background-color: rgb(42, 42, 42); display: inline; float: none;&quot;&gt;100,000円&lt;/span&gt;" style="shape=partialRectangle;html=1;whiteSpace=wrap;connectable=0;fillColor=none;top=0;left=0;bottom=0;right=0;overflow=hidden;pointerEvents=1;fontSize=12;" vertex="1" parent="119">
                    <mxGeometry x="135" width="68" height="41" as="geometry">
                        <mxRectangle width="68" height="41" as="alternateBounds"/>
                    </mxGeometry>
                </mxCell>
                <mxCell id="123" value="&lt;meta charset=&quot;utf-8&quot;&gt;&lt;span style=&quot;color: rgb(240, 240, 240); font-family: helvetica; font-size: 12px; font-style: normal; font-weight: 400; letter-spacing: normal; text-align: center; text-indent: 0px; text-transform: none; word-spacing: 0px; background-color: rgb(42, 42, 42); display: inline; float: none;&quot;&gt;100,000円&lt;/span&gt;" style="shape=partialRectangle;html=1;whiteSpace=wrap;connectable=0;fillColor=none;top=0;left=0;bottom=0;right=0;overflow=hidden;pointerEvents=1;fontSize=12;" vertex="1" parent="119">
                    <mxGeometry x="203" width="67" height="41" as="geometry">
                        <mxRectangle width="67" height="41" as="alternateBounds"/>
                    </mxGeometry>
                </mxCell>
                <mxCell id="124" style="shape=partialRectangle;html=1;whiteSpace=wrap;collapsible=0;dropTarget=0;pointerEvents=0;fillColor=none;top=0;left=0;bottom=0;right=0;points=[[0,0.5],[1,0.5]];portConstraint=eastwest;fontSize=12;" vertex="1" parent="73">
                    <mxGeometry y="406" width="270" height="44" as="geometry"/>
                </mxCell>
                <mxCell id="125" value="10月" style="shape=partialRectangle;html=1;whiteSpace=wrap;connectable=0;fillColor=none;top=0;left=0;bottom=0;right=0;overflow=hidden;pointerEvents=1;fontSize=12;" vertex="1" parent="124">
                    <mxGeometry width="68" height="44" as="geometry">
                        <mxRectangle width="68" height="44" as="alternateBounds"/>
                    </mxGeometry>
                </mxCell>
                <mxCell id="126" value="&lt;meta charset=&quot;utf-8&quot;&gt;&lt;span style=&quot;color: rgb(240, 240, 240); font-family: helvetica; font-size: 12px; font-style: normal; font-weight: 400; letter-spacing: normal; text-align: center; text-indent: 0px; text-transform: none; word-spacing: 0px; background-color: rgb(42, 42, 42); display: inline; float: none;&quot;&gt;200,000円&lt;/span&gt;" style="shape=partialRectangle;html=1;whiteSpace=wrap;connectable=0;fillColor=none;top=0;left=0;bottom=0;right=0;overflow=hidden;pointerEvents=1;fontSize=12;" vertex="1" parent="124">
                    <mxGeometry x="68" width="67" height="44" as="geometry">
                        <mxRectangle width="67" height="44" as="alternateBounds"/>
                    </mxGeometry>
                </mxCell>
                <mxCell id="127" value="&lt;meta charset=&quot;utf-8&quot;&gt;&lt;span style=&quot;color: rgb(240, 240, 240); font-family: helvetica; font-size: 12px; font-style: normal; font-weight: 400; letter-spacing: normal; text-align: center; text-indent: 0px; text-transform: none; word-spacing: 0px; background-color: rgb(42, 42, 42); display: inline; float: none;&quot;&gt;100,000円&lt;/span&gt;" style="shape=partialRectangle;html=1;whiteSpace=wrap;connectable=0;fillColor=none;top=0;left=0;bottom=0;right=0;overflow=hidden;pointerEvents=1;fontSize=12;" vertex="1" parent="124">
                    <mxGeometry x="135" width="68" height="44" as="geometry">
                        <mxRectangle width="68" height="44" as="alternateBounds"/>
                    </mxGeometry>
                </mxCell>
                <mxCell id="128" value="&lt;meta charset=&quot;utf-8&quot;&gt;&lt;span style=&quot;color: rgb(240, 240, 240); font-family: helvetica; font-size: 12px; font-style: normal; font-weight: 400; letter-spacing: normal; text-align: center; text-indent: 0px; text-transform: none; word-spacing: 0px; background-color: rgb(42, 42, 42); display: inline; float: none;&quot;&gt;100,000円&lt;/span&gt;" style="shape=partialRectangle;html=1;whiteSpace=wrap;connectable=0;fillColor=none;top=0;left=0;bottom=0;right=0;overflow=hidden;pointerEvents=1;fontSize=12;" vertex="1" parent="124">
                    <mxGeometry x="203" width="67" height="44" as="geometry">
                        <mxRectangle width="67" height="44" as="alternateBounds"/>
                    </mxGeometry>
                </mxCell>
                <mxCell id="129" style="shape=partialRectangle;html=1;whiteSpace=wrap;collapsible=0;dropTarget=0;pointerEvents=0;fillColor=none;top=0;left=0;bottom=0;right=0;points=[[0,0.5],[1,0.5]];portConstraint=eastwest;fontSize=12;" vertex="1" parent="73">
                    <mxGeometry y="450" width="270" height="41" as="geometry"/>
                </mxCell>
                <mxCell id="130" value="11月" style="shape=partialRectangle;html=1;whiteSpace=wrap;connectable=0;fillColor=none;top=0;left=0;bottom=0;right=0;overflow=hidden;pointerEvents=1;fontSize=12;" vertex="1" parent="129">
                    <mxGeometry width="68" height="41" as="geometry">
                        <mxRectangle width="68" height="41" as="alternateBounds"/>
                    </mxGeometry>
                </mxCell>
                <mxCell id="131" value="&lt;meta charset=&quot;utf-8&quot;&gt;&lt;span style=&quot;color: rgb(240, 240, 240); font-family: helvetica; font-size: 12px; font-style: normal; font-weight: 400; letter-spacing: normal; text-align: center; text-indent: 0px; text-transform: none; word-spacing: 0px; background-color: rgb(42, 42, 42); display: inline; float: none;&quot;&gt;200,000円&lt;/span&gt;" style="shape=partialRectangle;html=1;whiteSpace=wrap;connectable=0;fillColor=none;top=0;left=0;bottom=0;right=0;overflow=hidden;pointerEvents=1;fontSize=12;" vertex="1" parent="129">
                    <mxGeometry x="68" width="67" height="41" as="geometry">
                        <mxRectangle width="67" height="41" as="alternateBounds"/>
                    </mxGeometry>
                </mxCell>
                <mxCell id="132" value="&lt;meta charset=&quot;utf-8&quot;&gt;&lt;span style=&quot;color: rgb(240, 240, 240); font-family: helvetica; font-size: 12px; font-style: normal; font-weight: 400; letter-spacing: normal; text-align: center; text-indent: 0px; text-transform: none; word-spacing: 0px; background-color: rgb(42, 42, 42); display: inline; float: none;&quot;&gt;100,000円&lt;/span&gt;" style="shape=partialRectangle;html=1;whiteSpace=wrap;connectable=0;fillColor=none;top=0;left=0;bottom=0;right=0;overflow=hidden;pointerEvents=1;fontSize=12;" vertex="1" parent="129">
                    <mxGeometry x="135" width="68" height="41" as="geometry">
                        <mxRectangle width="68" height="41" as="alternateBounds"/>
                    </mxGeometry>
                </mxCell>
                <mxCell id="133" value="&lt;meta charset=&quot;utf-8&quot;&gt;&lt;span style=&quot;color: rgb(240, 240, 240); font-family: helvetica; font-size: 12px; font-style: normal; font-weight: 400; letter-spacing: normal; text-align: center; text-indent: 0px; text-transform: none; word-spacing: 0px; background-color: rgb(42, 42, 42); display: inline; float: none;&quot;&gt;100,000円&lt;/span&gt;" style="shape=partialRectangle;html=1;whiteSpace=wrap;connectable=0;fillColor=none;top=0;left=0;bottom=0;right=0;overflow=hidden;pointerEvents=1;fontSize=12;" vertex="1" parent="129">
                    <mxGeometry x="203" width="67" height="41" as="geometry">
                        <mxRectangle width="67" height="41" as="alternateBounds"/>
                    </mxGeometry>
                </mxCell>
                <mxCell id="134" style="shape=partialRectangle;html=1;whiteSpace=wrap;collapsible=0;dropTarget=0;pointerEvents=0;fillColor=none;top=0;left=0;bottom=0;right=0;points=[[0,0.5],[1,0.5]];portConstraint=eastwest;fontSize=12;" vertex="1" parent="73">
                    <mxGeometry y="491" width="270" height="40" as="geometry"/>
                </mxCell>
                <mxCell id="135" value="12月" style="shape=partialRectangle;html=1;whiteSpace=wrap;connectable=0;fillColor=none;top=0;left=0;bottom=0;right=0;overflow=hidden;pointerEvents=1;fontSize=12;" vertex="1" parent="134">
                    <mxGeometry width="68" height="40" as="geometry">
                        <mxRectangle width="68" height="40" as="alternateBounds"/>
                    </mxGeometry>
                </mxCell>
                <mxCell id="136" value="&lt;meta charset=&quot;utf-8&quot;&gt;&lt;span style=&quot;color: rgb(240, 240, 240); font-family: helvetica; font-size: 12px; font-style: normal; font-weight: 400; letter-spacing: normal; text-align: center; text-indent: 0px; text-transform: none; word-spacing: 0px; background-color: rgb(42, 42, 42); display: inline; float: none;&quot;&gt;200,000円&lt;/span&gt;" style="shape=partialRectangle;html=1;whiteSpace=wrap;connectable=0;fillColor=none;top=0;left=0;bottom=0;right=0;overflow=hidden;pointerEvents=1;fontSize=12;" vertex="1" parent="134">
                    <mxGeometry x="68" width="67" height="40" as="geometry">
                        <mxRectangle width="67" height="40" as="alternateBounds"/>
                    </mxGeometry>
                </mxCell>
                <mxCell id="137" value="&lt;meta charset=&quot;utf-8&quot;&gt;&lt;span style=&quot;color: rgb(240, 240, 240); font-family: helvetica; font-size: 12px; font-style: normal; font-weight: 400; letter-spacing: normal; text-align: center; text-indent: 0px; text-transform: none; word-spacing: 0px; background-color: rgb(42, 42, 42); display: inline; float: none;&quot;&gt;100,000円&lt;/span&gt;" style="shape=partialRectangle;html=1;whiteSpace=wrap;connectable=0;fillColor=none;top=0;left=0;bottom=0;right=0;overflow=hidden;pointerEvents=1;fontSize=12;" vertex="1" parent="134">
                    <mxGeometry x="135" width="68" height="40" as="geometry">
                        <mxRectangle width="68" height="40" as="alternateBounds"/>
                    </mxGeometry>
                </mxCell>
                <mxCell id="138" value="&lt;meta charset=&quot;utf-8&quot;&gt;&lt;span style=&quot;color: rgb(240, 240, 240); font-family: helvetica; font-size: 12px; font-style: normal; font-weight: 400; letter-spacing: normal; text-align: center; text-indent: 0px; text-transform: none; word-spacing: 0px; background-color: rgb(42, 42, 42); display: inline; float: none;&quot;&gt;100,000円&lt;/span&gt;" style="shape=partialRectangle;html=1;whiteSpace=wrap;connectable=0;fillColor=none;top=0;left=0;bottom=0;right=0;overflow=hidden;pointerEvents=1;fontSize=12;" vertex="1" parent="134">
                    <mxGeometry x="203" width="67" height="40" as="geometry">
                        <mxRectangle width="67" height="40" as="alternateBounds"/>
                    </mxGeometry>
                </mxCell>
                <mxCell id="145" value="" style="rounded=0;whiteSpace=wrap;html=1;" vertex="1" parent="1">
                    <mxGeometry x="440" y="480" width="320" height="720" as="geometry"/>
                </mxCell>
                <mxCell id="150" value="" style="group" vertex="1" connectable="0" parent="1">
                    <mxGeometry x="465" y="530" width="270" height="55" as="geometry"/>
                </mxCell>
                <mxCell id="151" value="" style="rounded=0;whiteSpace=wrap;html=1;fontSize=12;" vertex="1" parent="150">
                    <mxGeometry width="270" height="55" as="geometry"/>
                </mxCell>
                <mxCell id="152" value="&lt;div&gt;&lt;span&gt;&lt;b&gt;収入&lt;/b&gt;&lt;/span&gt;&lt;/div&gt;&lt;b&gt;200,000円&lt;/b&gt;" style="text;html=1;strokeColor=none;fillColor=none;align=center;verticalAlign=middle;whiteSpace=wrap;rounded=0;" vertex="1" parent="150">
                    <mxGeometry y="7.5" width="80" height="40" as="geometry"/>
                </mxCell>
                <mxCell id="153" value="&lt;div&gt;&lt;span&gt;&lt;b&gt;控除&lt;/b&gt;&lt;/span&gt;&lt;/div&gt;&lt;b&gt;100,000円&lt;/b&gt;" style="text;html=1;strokeColor=none;fillColor=none;align=center;verticalAlign=middle;whiteSpace=wrap;rounded=0;" vertex="1" parent="150">
                    <mxGeometry x="95" y="7.5" width="80" height="40" as="geometry"/>
                </mxCell>
                <mxCell id="154" value="&lt;div&gt;&lt;b&gt;手取り&lt;/b&gt;&lt;/div&gt;&lt;b&gt;100,000円&lt;/b&gt;" style="text;html=1;strokeColor=none;fillColor=none;align=center;verticalAlign=middle;whiteSpace=wrap;rounded=0;" vertex="1" parent="150">
                    <mxGeometry x="190" y="7.5" width="80" height="40" as="geometry"/>
                </mxCell>
                <mxCell id="155" value="" style="shape=table;html=1;whiteSpace=wrap;startSize=0;container=1;collapsible=0;childLayout=tableLayout;columnLines=0;rowLines=0;fontSize=12;" vertex="1" parent="1">
                    <mxGeometry x="462.5" y="600" width="275" height="243" as="geometry"/>
                </mxCell>
                <mxCell id="156" value="" style="shape=partialRectangle;html=1;whiteSpace=wrap;collapsible=0;dropTarget=0;pointerEvents=0;fillColor=none;top=0;left=0;bottom=0;right=0;points=[[0,0.5],[1,0.5]];portConstraint=eastwest;fontSize=12;" vertex="1" parent="155">
                    <mxGeometry width="275" height="41" as="geometry"/>
                </mxCell>
                <mxCell id="157" value="&lt;b&gt;収入&lt;/b&gt;" style="shape=partialRectangle;html=1;whiteSpace=wrap;connectable=0;fillColor=none;top=0;left=0;bottom=0;right=0;overflow=hidden;pointerEvents=1;fontSize=12;" vertex="1" parent="156">
                    <mxGeometry width="139" height="41" as="geometry">
                        <mxRectangle width="139" height="41" as="alternateBounds"/>
                    </mxGeometry>
                </mxCell>
                <mxCell id="158" value="&lt;b&gt;200,000円&lt;/b&gt;" style="shape=partialRectangle;html=1;whiteSpace=wrap;connectable=0;fillColor=none;top=0;left=0;bottom=0;right=0;overflow=hidden;pointerEvents=1;fontSize=12;" vertex="1" parent="156">
                    <mxGeometry x="139" width="136" height="41" as="geometry">
                        <mxRectangle width="136" height="41" as="alternateBounds"/>
                    </mxGeometry>
                </mxCell>
                <mxCell id="161" value="" style="shape=partialRectangle;html=1;whiteSpace=wrap;collapsible=0;dropTarget=0;pointerEvents=0;fillColor=none;top=0;left=0;bottom=0;right=0;points=[[0,0.5],[1,0.5]];portConstraint=eastwest;fontSize=12;" vertex="1" parent="155">
                    <mxGeometry y="41" width="275" height="39" as="geometry"/>
                </mxCell>
                <mxCell id="162" value="基本給" style="shape=partialRectangle;html=1;whiteSpace=wrap;connectable=0;fillColor=none;top=0;left=0;bottom=0;right=0;overflow=hidden;pointerEvents=1;fontSize=12;" vertex="1" parent="161">
                    <mxGeometry width="139" height="39" as="geometry">
                        <mxRectangle width="139" height="39" as="alternateBounds"/>
                    </mxGeometry>
                </mxCell>
                <mxCell id="163" value="200,000円" style="shape=partialRectangle;html=1;whiteSpace=wrap;connectable=0;fillColor=none;top=0;left=0;bottom=0;right=0;overflow=hidden;pointerEvents=1;fontSize=12;" vertex="1" parent="161">
                    <mxGeometry x="139" width="136" height="39" as="geometry">
                        <mxRectangle width="136" height="39" as="alternateBounds"/>
                    </mxGeometry>
                </mxCell>
                <mxCell id="166" value="" style="shape=partialRectangle;html=1;whiteSpace=wrap;collapsible=0;dropTarget=0;pointerEvents=0;fillColor=none;top=0;left=0;bottom=0;right=0;points=[[0,0.5],[1,0.5]];portConstraint=eastwest;fontSize=12;" vertex="1" parent="155">
                    <mxGeometry y="80" width="275" height="41" as="geometry"/>
                </mxCell>
                <mxCell id="167" value="時間外勤務" style="shape=partialRectangle;html=1;whiteSpace=wrap;connectable=0;fillColor=none;top=0;left=0;bottom=0;right=0;overflow=hidden;pointerEvents=1;fontSize=12;" vertex="1" parent="166">
                    <mxGeometry width="139" height="41" as="geometry">
                        <mxRectangle width="139" height="41" as="alternateBounds"/>
                    </mxGeometry>
                </mxCell>
                <mxCell id="168" value="200,000円" style="shape=partialRectangle;html=1;whiteSpace=wrap;connectable=0;fillColor=none;top=0;left=0;bottom=0;right=0;overflow=hidden;pointerEvents=1;fontSize=12;" vertex="1" parent="166">
                    <mxGeometry x="139" width="136" height="41" as="geometry">
                        <mxRectangle width="136" height="41" as="alternateBounds"/>
                    </mxGeometry>
                </mxCell>
                <mxCell id="171" style="shape=partialRectangle;html=1;whiteSpace=wrap;collapsible=0;dropTarget=0;pointerEvents=0;fillColor=none;top=0;left=0;bottom=0;right=0;points=[[0,0.5],[1,0.5]];portConstraint=eastwest;fontSize=12;" vertex="1" parent="155">
                    <mxGeometry y="121" width="275" height="41" as="geometry"/>
                </mxCell>
                <mxCell id="172" value="各種手当" style="shape=partialRectangle;html=1;whiteSpace=wrap;connectable=0;fillColor=none;top=0;left=0;bottom=0;right=0;overflow=hidden;pointerEvents=1;fontSize=12;" vertex="1" parent="171">
                    <mxGeometry width="139" height="41" as="geometry">
                        <mxRectangle width="139" height="41" as="alternateBounds"/>
                    </mxGeometry>
                </mxCell>
                <mxCell id="173" value="&lt;span&gt;200,000円&lt;/span&gt;" style="shape=partialRectangle;html=1;whiteSpace=wrap;connectable=0;fillColor=none;top=0;left=0;bottom=0;right=0;overflow=hidden;pointerEvents=1;fontSize=12;" vertex="1" parent="171">
                    <mxGeometry x="139" width="136" height="41" as="geometry">
                        <mxRectangle width="136" height="41" as="alternateBounds"/>
                    </mxGeometry>
                </mxCell>
                <mxCell id="176" style="shape=partialRectangle;html=1;whiteSpace=wrap;collapsible=0;dropTarget=0;pointerEvents=0;fillColor=none;top=0;left=0;bottom=0;right=0;points=[[0,0.5],[1,0.5]];portConstraint=eastwest;fontSize=12;" vertex="1" parent="155">
                    <mxGeometry y="162" width="275" height="41" as="geometry"/>
                </mxCell>
                <mxCell id="177" value="ボーナス" style="shape=partialRectangle;html=1;whiteSpace=wrap;connectable=0;fillColor=none;top=0;left=0;bottom=0;right=0;overflow=hidden;pointerEvents=1;fontSize=12;" vertex="1" parent="176">
                    <mxGeometry width="139" height="41" as="geometry">
                        <mxRectangle width="139" height="41" as="alternateBounds"/>
                    </mxGeometry>
                </mxCell>
                <mxCell id="178" value="&lt;span&gt;200,000円&lt;/span&gt;" style="shape=partialRectangle;html=1;whiteSpace=wrap;connectable=0;fillColor=none;top=0;left=0;bottom=0;right=0;overflow=hidden;pointerEvents=1;fontSize=12;" vertex="1" parent="176">
                    <mxGeometry x="139" width="136" height="41" as="geometry">
                        <mxRectangle width="136" height="41" as="alternateBounds"/>
                    </mxGeometry>
                </mxCell>
                <mxCell id="181" style="shape=partialRectangle;html=1;whiteSpace=wrap;collapsible=0;dropTarget=0;pointerEvents=0;fillColor=none;top=0;left=0;bottom=0;right=0;points=[[0,0.5],[1,0.5]];portConstraint=eastwest;fontSize=12;" vertex="1" parent="155">
                    <mxGeometry y="203" width="275" height="40" as="geometry"/>
                </mxCell>
                <mxCell id="182" value="その他" style="shape=partialRectangle;html=1;whiteSpace=wrap;connectable=0;fillColor=none;top=0;left=0;bottom=0;right=0;overflow=hidden;pointerEvents=1;fontSize=12;" vertex="1" parent="181">
                    <mxGeometry width="139" height="40" as="geometry">
                        <mxRectangle width="139" height="40" as="alternateBounds"/>
                    </mxGeometry>
                </mxCell>
                <mxCell id="183" value="&lt;span&gt;200,000円&lt;/span&gt;" style="shape=partialRectangle;html=1;whiteSpace=wrap;connectable=0;fillColor=none;top=0;left=0;bottom=0;right=0;overflow=hidden;pointerEvents=1;fontSize=12;" vertex="1" parent="181">
                    <mxGeometry x="139" width="136" height="40" as="geometry">
                        <mxRectangle width="136" height="40" as="alternateBounds"/>
                    </mxGeometry>
                </mxCell>
                <mxCell id="222" value="2022年度1月" style="text;html=1;strokeColor=none;fillColor=none;align=center;verticalAlign=middle;whiteSpace=wrap;rounded=0;fontSize=12;" vertex="1" parent="1">
                    <mxGeometry x="560" y="490" width="80" height="30" as="geometry"/>
                </mxCell>
                <mxCell id="223" value="" style="shape=table;html=1;whiteSpace=wrap;startSize=0;container=1;collapsible=0;childLayout=tableLayout;columnLines=0;rowLines=0;fontSize=12;" vertex="1" parent="1">
                    <mxGeometry x="462.5" y="860" width="275" height="323" as="geometry"/>
                </mxCell>
                <mxCell id="224" value="" style="shape=partialRectangle;html=1;whiteSpace=wrap;collapsible=0;dropTarget=0;pointerEvents=0;fillColor=none;top=0;left=0;bottom=0;right=0;points=[[0,0.5],[1,0.5]];portConstraint=eastwest;fontSize=12;" vertex="1" parent="223">
                    <mxGeometry width="275" height="41" as="geometry"/>
                </mxCell>
                <mxCell id="225" value="&lt;b&gt;控除&lt;/b&gt;" style="shape=partialRectangle;html=1;whiteSpace=wrap;connectable=0;fillColor=none;top=0;left=0;bottom=0;right=0;overflow=hidden;pointerEvents=1;fontSize=12;" vertex="1" parent="224">
                    <mxGeometry width="139" height="41" as="geometry">
                        <mxRectangle width="139" height="41" as="alternateBounds"/>
                    </mxGeometry>
                </mxCell>
                <mxCell id="226" value="&lt;b&gt;100,000円&lt;/b&gt;" style="shape=partialRectangle;html=1;whiteSpace=wrap;connectable=0;fillColor=none;top=0;left=0;bottom=0;right=0;overflow=hidden;pointerEvents=1;fontSize=12;" vertex="1" parent="224">
                    <mxGeometry x="139" width="136" height="41" as="geometry">
                        <mxRectangle width="136" height="41" as="alternateBounds"/>
                    </mxGeometry>
                </mxCell>
                <mxCell id="227" value="" style="shape=partialRectangle;html=1;whiteSpace=wrap;collapsible=0;dropTarget=0;pointerEvents=0;fillColor=none;top=0;left=0;bottom=0;right=0;points=[[0,0.5],[1,0.5]];portConstraint=eastwest;fontSize=12;" vertex="1" parent="223">
                    <mxGeometry y="41" width="275" height="39" as="geometry"/>
                </mxCell>
                <mxCell id="228" value="所得税" style="shape=partialRectangle;html=1;whiteSpace=wrap;connectable=0;fillColor=none;top=0;left=0;bottom=0;right=0;overflow=hidden;pointerEvents=1;fontSize=12;" vertex="1" parent="227">
                    <mxGeometry width="139" height="39" as="geometry">
                        <mxRectangle width="139" height="39" as="alternateBounds"/>
                    </mxGeometry>
                </mxCell>
                <mxCell id="229" value="200,000円" style="shape=partialRectangle;html=1;whiteSpace=wrap;connectable=0;fillColor=none;top=0;left=0;bottom=0;right=0;overflow=hidden;pointerEvents=1;fontSize=12;" vertex="1" parent="227">
                    <mxGeometry x="139" width="136" height="39" as="geometry">
                        <mxRectangle width="136" height="39" as="alternateBounds"/>
                    </mxGeometry>
                </mxCell>
                <mxCell id="230" value="" style="shape=partialRectangle;html=1;whiteSpace=wrap;collapsible=0;dropTarget=0;pointerEvents=0;fillColor=none;top=0;left=0;bottom=0;right=0;points=[[0,0.5],[1,0.5]];portConstraint=eastwest;fontSize=12;" vertex="1" parent="223">
                    <mxGeometry y="80" width="275" height="41" as="geometry"/>
                </mxCell>
                <mxCell id="231" value="住民税" style="shape=partialRectangle;html=1;whiteSpace=wrap;connectable=0;fillColor=none;top=0;left=0;bottom=0;right=0;overflow=hidden;pointerEvents=1;fontSize=12;" vertex="1" parent="230">
                    <mxGeometry width="139" height="41" as="geometry">
                        <mxRectangle width="139" height="41" as="alternateBounds"/>
                    </mxGeometry>
                </mxCell>
                <mxCell id="232" value="200,000円" style="shape=partialRectangle;html=1;whiteSpace=wrap;connectable=0;fillColor=none;top=0;left=0;bottom=0;right=0;overflow=hidden;pointerEvents=1;fontSize=12;" vertex="1" parent="230">
                    <mxGeometry x="139" width="136" height="41" as="geometry">
                        <mxRectangle width="136" height="41" as="alternateBounds"/>
                    </mxGeometry>
                </mxCell>
                <mxCell id="233" style="shape=partialRectangle;html=1;whiteSpace=wrap;collapsible=0;dropTarget=0;pointerEvents=0;fillColor=none;top=0;left=0;bottom=0;right=0;points=[[0,0.5],[1,0.5]];portConstraint=eastwest;fontSize=12;" vertex="1" parent="223">
                    <mxGeometry y="121" width="275" height="41" as="geometry"/>
                </mxCell>
                <mxCell id="234" value="健康保険料" style="shape=partialRectangle;html=1;whiteSpace=wrap;connectable=0;fillColor=none;top=0;left=0;bottom=0;right=0;overflow=hidden;pointerEvents=1;fontSize=12;" vertex="1" parent="233">
                    <mxGeometry width="139" height="41" as="geometry">
                        <mxRectangle width="139" height="41" as="alternateBounds"/>
                    </mxGeometry>
                </mxCell>
                <mxCell id="235" value="&lt;span&gt;200,000円&lt;/span&gt;" style="shape=partialRectangle;html=1;whiteSpace=wrap;connectable=0;fillColor=none;top=0;left=0;bottom=0;right=0;overflow=hidden;pointerEvents=1;fontSize=12;" vertex="1" parent="233">
                    <mxGeometry x="139" width="136" height="41" as="geometry">
                        <mxRectangle width="136" height="41" as="alternateBounds"/>
                    </mxGeometry>
                </mxCell>
                <mxCell id="236" style="shape=partialRectangle;html=1;whiteSpace=wrap;collapsible=0;dropTarget=0;pointerEvents=0;fillColor=none;top=0;left=0;bottom=0;right=0;points=[[0,0.5],[1,0.5]];portConstraint=eastwest;fontSize=12;" vertex="1" parent="223">
                    <mxGeometry y="162" width="275" height="41" as="geometry"/>
                </mxCell>
                <mxCell id="237" value="年金保険料" style="shape=partialRectangle;html=1;whiteSpace=wrap;connectable=0;fillColor=none;top=0;left=0;bottom=0;right=0;overflow=hidden;pointerEvents=1;fontSize=12;" vertex="1" parent="236">
                    <mxGeometry width="139" height="41" as="geometry">
                        <mxRectangle width="139" height="41" as="alternateBounds"/>
                    </mxGeometry>
                </mxCell>
                <mxCell id="238" value="&lt;span&gt;200,000円&lt;/span&gt;" style="shape=partialRectangle;html=1;whiteSpace=wrap;connectable=0;fillColor=none;top=0;left=0;bottom=0;right=0;overflow=hidden;pointerEvents=1;fontSize=12;" vertex="1" parent="236">
                    <mxGeometry x="139" width="136" height="41" as="geometry">
                        <mxRectangle width="136" height="41" as="alternateBounds"/>
                    </mxGeometry>
                </mxCell>
                <mxCell id="239" style="shape=partialRectangle;html=1;whiteSpace=wrap;collapsible=0;dropTarget=0;pointerEvents=0;fillColor=none;top=0;left=0;bottom=0;right=0;points=[[0,0.5],[1,0.5]];portConstraint=eastwest;fontSize=12;" vertex="1" parent="223">
                    <mxGeometry y="203" width="275" height="40" as="geometry"/>
                </mxCell>
                <mxCell id="240" value="雇用保険料" style="shape=partialRectangle;html=1;whiteSpace=wrap;connectable=0;fillColor=none;top=0;left=0;bottom=0;right=0;overflow=hidden;pointerEvents=1;fontSize=12;" vertex="1" parent="239">
                    <mxGeometry width="139" height="40" as="geometry">
                        <mxRectangle width="139" height="40" as="alternateBounds"/>
                    </mxGeometry>
                </mxCell>
                <mxCell id="241" value="&lt;span&gt;200,000円&lt;/span&gt;" style="shape=partialRectangle;html=1;whiteSpace=wrap;connectable=0;fillColor=none;top=0;left=0;bottom=0;right=0;overflow=hidden;pointerEvents=1;fontSize=12;" vertex="1" parent="239">
                    <mxGeometry x="139" width="136" height="40" as="geometry">
                        <mxRectangle width="136" height="40" as="alternateBounds"/>
                    </mxGeometry>
                </mxCell>
                <mxCell id="245" style="shape=partialRectangle;html=1;whiteSpace=wrap;collapsible=0;dropTarget=0;pointerEvents=0;fillColor=none;top=0;left=0;bottom=0;right=0;points=[[0,0.5],[1,0.5]];portConstraint=eastwest;fontSize=12;" vertex="1" parent="223">
                    <mxGeometry y="243" width="275" height="40" as="geometry"/>
                </mxCell>
                <mxCell id="246" value="労働組合費" style="shape=partialRectangle;html=1;whiteSpace=wrap;connectable=0;fillColor=none;top=0;left=0;bottom=0;right=0;overflow=hidden;pointerEvents=1;fontSize=12;" vertex="1" parent="245">
                    <mxGeometry width="139" height="40" as="geometry">
                        <mxRectangle width="139" height="40" as="alternateBounds"/>
                    </mxGeometry>
                </mxCell>
                <mxCell id="247" value="&lt;span&gt;200,000円&lt;/span&gt;" style="shape=partialRectangle;html=1;whiteSpace=wrap;connectable=0;fillColor=none;top=0;left=0;bottom=0;right=0;overflow=hidden;pointerEvents=1;fontSize=12;" vertex="1" parent="245">
                    <mxGeometry x="139" width="136" height="40" as="geometry">
                        <mxRectangle width="136" height="40" as="alternateBounds"/>
                    </mxGeometry>
                </mxCell>
                <mxCell id="242" style="shape=partialRectangle;html=1;whiteSpace=wrap;collapsible=0;dropTarget=0;pointerEvents=0;fillColor=none;top=0;left=0;bottom=0;right=0;points=[[0,0.5],[1,0.5]];portConstraint=eastwest;fontSize=12;" vertex="1" parent="223">
                    <mxGeometry y="283" width="275" height="40" as="geometry"/>
                </mxCell>
                <mxCell id="243" value="その他" style="shape=partialRectangle;html=1;whiteSpace=wrap;connectable=0;fillColor=none;top=0;left=0;bottom=0;right=0;overflow=hidden;pointerEvents=1;fontSize=12;" vertex="1" parent="242">
                    <mxGeometry width="139" height="40" as="geometry">
                        <mxRectangle width="139" height="40" as="alternateBounds"/>
                    </mxGeometry>
                </mxCell>
                <mxCell id="244" value="&lt;span&gt;200,000円&lt;/span&gt;" style="shape=partialRectangle;html=1;whiteSpace=wrap;connectable=0;fillColor=none;top=0;left=0;bottom=0;right=0;overflow=hidden;pointerEvents=1;fontSize=12;" vertex="1" parent="242">
                    <mxGeometry x="139" width="136" height="40" as="geometry">
                        <mxRectangle width="136" height="40" as="alternateBounds"/>
                    </mxGeometry>
                </mxCell>
                <mxCell id="252" value="" style="group" vertex="1" connectable="0" parent="1">
                    <mxGeometry x="700" y="490" width="30" height="30" as="geometry"/>
                </mxCell>
                <mxCell id="251" value="" style="rounded=0;whiteSpace=wrap;html=1;fontSize=12;fillColor=#000000;" vertex="1" parent="252">
                    <mxGeometry width="30" height="30" as="geometry"/>
                </mxCell>
                <mxCell id="250" value="" style="sketch=0;pointerEvents=1;shadow=0;dashed=0;html=1;strokeColor=#36393d;fillColor=#F9F7ED;labelPosition=center;verticalLabelPosition=bottom;verticalAlign=top;outlineConnect=0;align=center;shape=mxgraph.office.concepts.writing_pen;fontSize=12;" vertex="1" parent="252">
                    <mxGeometry x="2.5" y="2.5" width="25" height="25" as="geometry"/>
                </mxCell>
                <mxCell id="255" value="" style="rounded=0;whiteSpace=wrap;html=1;" vertex="1" parent="1">
                    <mxGeometry x="840" y="480" width="320" height="740" as="geometry"/>
                </mxCell>
                <mxCell id="256" value="2022年度1月" style="text;html=1;strokeColor=none;fillColor=none;align=center;verticalAlign=middle;whiteSpace=wrap;rounded=0;fontSize=12;" vertex="1" parent="1">
                    <mxGeometry x="960" y="490" width="80" height="30" as="geometry"/>
                </mxCell>
                <mxCell id="257" value="" style="group" vertex="1" connectable="0" parent="1">
                    <mxGeometry x="865" y="520" width="270" height="55" as="geometry"/>
                </mxCell>
                <mxCell id="258" value="" style="rounded=0;whiteSpace=wrap;html=1;fontSize=12;" vertex="1" parent="257">
                    <mxGeometry width="270" height="55" as="geometry"/>
                </mxCell>
                <mxCell id="259" value="&lt;div&gt;&lt;span&gt;&lt;b&gt;収入&lt;/b&gt;&lt;/span&gt;&lt;/div&gt;&lt;b&gt;200,000円&lt;/b&gt;" style="text;html=1;strokeColor=none;fillColor=none;align=center;verticalAlign=middle;whiteSpace=wrap;rounded=0;" vertex="1" parent="257">
                    <mxGeometry y="7.5" width="80" height="40" as="geometry"/>
                </mxCell>
                <mxCell id="260" value="&lt;div&gt;&lt;span&gt;&lt;b&gt;控除&lt;/b&gt;&lt;/span&gt;&lt;/div&gt;&lt;b&gt;100,000円&lt;/b&gt;" style="text;html=1;strokeColor=none;fillColor=none;align=center;verticalAlign=middle;whiteSpace=wrap;rounded=0;" vertex="1" parent="257">
                    <mxGeometry x="95" y="7.5" width="80" height="40" as="geometry"/>
                </mxCell>
                <mxCell id="261" value="&lt;div&gt;&lt;b&gt;手取り&lt;/b&gt;&lt;/div&gt;&lt;b&gt;100,000円&lt;/b&gt;" style="text;html=1;strokeColor=none;fillColor=none;align=center;verticalAlign=middle;whiteSpace=wrap;rounded=0;" vertex="1" parent="257">
                    <mxGeometry x="190" y="7.5" width="80" height="40" as="geometry"/>
                </mxCell>
                <mxCell id="262" value="" style="shape=table;html=1;whiteSpace=wrap;startSize=0;container=1;collapsible=0;childLayout=tableLayout;columnLines=0;rowLines=0;fontSize=12;" vertex="1" parent="1">
                    <mxGeometry x="862.5" y="590" width="275" height="243" as="geometry"/>
                </mxCell>
                <mxCell id="263" value="" style="shape=partialRectangle;html=1;whiteSpace=wrap;collapsible=0;dropTarget=0;pointerEvents=0;fillColor=none;top=0;left=0;bottom=0;right=0;points=[[0,0.5],[1,0.5]];portConstraint=eastwest;fontSize=12;" vertex="1" parent="262">
                    <mxGeometry width="275" height="41" as="geometry"/>
                </mxCell>
                <mxCell id="264" value="&lt;b&gt;収入&lt;/b&gt;" style="shape=partialRectangle;html=1;whiteSpace=wrap;connectable=0;fillColor=none;top=0;left=0;bottom=0;right=0;overflow=hidden;pointerEvents=1;fontSize=12;" vertex="1" parent="263">
                    <mxGeometry width="139" height="41" as="geometry">
                        <mxRectangle width="139" height="41" as="alternateBounds"/>
                    </mxGeometry>
                </mxCell>
                <mxCell id="265" value="&lt;b&gt;200,000円&lt;/b&gt;" style="shape=partialRectangle;html=1;whiteSpace=wrap;connectable=0;fillColor=none;top=0;left=0;bottom=0;right=0;overflow=hidden;pointerEvents=1;fontSize=12;" vertex="1" parent="263">
                    <mxGeometry x="139" width="136" height="41" as="geometry">
                        <mxRectangle width="136" height="41" as="alternateBounds"/>
                    </mxGeometry>
                </mxCell>
                <mxCell id="266" value="" style="shape=partialRectangle;html=1;whiteSpace=wrap;collapsible=0;dropTarget=0;pointerEvents=0;fillColor=none;top=0;left=0;bottom=0;right=0;points=[[0,0.5],[1,0.5]];portConstraint=eastwest;fontSize=12;" vertex="1" parent="262">
                    <mxGeometry y="41" width="275" height="39" as="geometry"/>
                </mxCell>
                <mxCell id="267" value="基本給" style="shape=partialRectangle;html=1;whiteSpace=wrap;connectable=0;fillColor=none;top=0;left=0;bottom=0;right=0;overflow=hidden;pointerEvents=1;fontSize=12;" vertex="1" parent="266">
                    <mxGeometry width="139" height="39" as="geometry">
                        <mxRectangle width="139" height="39" as="alternateBounds"/>
                    </mxGeometry>
                </mxCell>
                <mxCell id="268" value="200,000円" style="shape=partialRectangle;html=1;whiteSpace=wrap;connectable=0;fillColor=none;top=0;left=0;bottom=0;right=0;overflow=hidden;pointerEvents=1;fontSize=12;" vertex="1" parent="266">
                    <mxGeometry x="139" width="136" height="39" as="geometry">
                        <mxRectangle width="136" height="39" as="alternateBounds"/>
                    </mxGeometry>
                </mxCell>
                <mxCell id="269" value="" style="shape=partialRectangle;html=1;whiteSpace=wrap;collapsible=0;dropTarget=0;pointerEvents=0;fillColor=none;top=0;left=0;bottom=0;right=0;points=[[0,0.5],[1,0.5]];portConstraint=eastwest;fontSize=12;" vertex="1" parent="262">
                    <mxGeometry y="80" width="275" height="41" as="geometry"/>
                </mxCell>
                <mxCell id="270" value="時間外勤務" style="shape=partialRectangle;html=1;whiteSpace=wrap;connectable=0;fillColor=none;top=0;left=0;bottom=0;right=0;overflow=hidden;pointerEvents=1;fontSize=12;" vertex="1" parent="269">
                    <mxGeometry width="139" height="41" as="geometry">
                        <mxRectangle width="139" height="41" as="alternateBounds"/>
                    </mxGeometry>
                </mxCell>
                <mxCell id="271" value="200,000円" style="shape=partialRectangle;html=1;whiteSpace=wrap;connectable=0;fillColor=none;top=0;left=0;bottom=0;right=0;overflow=hidden;pointerEvents=1;fontSize=12;" vertex="1" parent="269">
                    <mxGeometry x="139" width="136" height="41" as="geometry">
                        <mxRectangle width="136" height="41" as="alternateBounds"/>
                    </mxGeometry>
                </mxCell>
                <mxCell id="272" style="shape=partialRectangle;html=1;whiteSpace=wrap;collapsible=0;dropTarget=0;pointerEvents=0;fillColor=none;top=0;left=0;bottom=0;right=0;points=[[0,0.5],[1,0.5]];portConstraint=eastwest;fontSize=12;" vertex="1" parent="262">
                    <mxGeometry y="121" width="275" height="41" as="geometry"/>
                </mxCell>
                <mxCell id="273" value="各種手当" style="shape=partialRectangle;html=1;whiteSpace=wrap;connectable=0;fillColor=none;top=0;left=0;bottom=0;right=0;overflow=hidden;pointerEvents=1;fontSize=12;" vertex="1" parent="272">
                    <mxGeometry width="139" height="41" as="geometry">
                        <mxRectangle width="139" height="41" as="alternateBounds"/>
                    </mxGeometry>
                </mxCell>
                <mxCell id="274" value="&lt;span&gt;200,000円&lt;/span&gt;" style="shape=partialRectangle;html=1;whiteSpace=wrap;connectable=0;fillColor=none;top=0;left=0;bottom=0;right=0;overflow=hidden;pointerEvents=1;fontSize=12;" vertex="1" parent="272">
                    <mxGeometry x="139" width="136" height="41" as="geometry">
                        <mxRectangle width="136" height="41" as="alternateBounds"/>
                    </mxGeometry>
                </mxCell>
                <mxCell id="275" style="shape=partialRectangle;html=1;whiteSpace=wrap;collapsible=0;dropTarget=0;pointerEvents=0;fillColor=none;top=0;left=0;bottom=0;right=0;points=[[0,0.5],[1,0.5]];portConstraint=eastwest;fontSize=12;" vertex="1" parent="262">
                    <mxGeometry y="162" width="275" height="41" as="geometry"/>
                </mxCell>
                <mxCell id="276" value="ボーナス" style="shape=partialRectangle;html=1;whiteSpace=wrap;connectable=0;fillColor=none;top=0;left=0;bottom=0;right=0;overflow=hidden;pointerEvents=1;fontSize=12;" vertex="1" parent="275">
                    <mxGeometry width="139" height="41" as="geometry">
                        <mxRectangle width="139" height="41" as="alternateBounds"/>
                    </mxGeometry>
                </mxCell>
                <mxCell id="277" value="&lt;span&gt;200,000円&lt;/span&gt;" style="shape=partialRectangle;html=1;whiteSpace=wrap;connectable=0;fillColor=none;top=0;left=0;bottom=0;right=0;overflow=hidden;pointerEvents=1;fontSize=12;" vertex="1" parent="275">
                    <mxGeometry x="139" width="136" height="41" as="geometry">
                        <mxRectangle width="136" height="41" as="alternateBounds"/>
                    </mxGeometry>
                </mxCell>
                <mxCell id="278" style="shape=partialRectangle;html=1;whiteSpace=wrap;collapsible=0;dropTarget=0;pointerEvents=0;fillColor=none;top=0;left=0;bottom=0;right=0;points=[[0,0.5],[1,0.5]];portConstraint=eastwest;fontSize=12;" vertex="1" parent="262">
                    <mxGeometry y="203" width="275" height="40" as="geometry"/>
                </mxCell>
                <mxCell id="279" value="その他" style="shape=partialRectangle;html=1;whiteSpace=wrap;connectable=0;fillColor=none;top=0;left=0;bottom=0;right=0;overflow=hidden;pointerEvents=1;fontSize=12;" vertex="1" parent="278">
                    <mxGeometry width="139" height="40" as="geometry">
                        <mxRectangle width="139" height="40" as="alternateBounds"/>
                    </mxGeometry>
                </mxCell>
                <mxCell id="280" value="&lt;span&gt;200,000円&lt;/span&gt;" style="shape=partialRectangle;html=1;whiteSpace=wrap;connectable=0;fillColor=none;top=0;left=0;bottom=0;right=0;overflow=hidden;pointerEvents=1;fontSize=12;" vertex="1" parent="278">
                    <mxGeometry x="139" width="136" height="40" as="geometry">
                        <mxRectangle width="136" height="40" as="alternateBounds"/>
                    </mxGeometry>
                </mxCell>
                <mxCell id="281" value="" style="shape=table;html=1;whiteSpace=wrap;startSize=0;container=1;collapsible=0;childLayout=tableLayout;columnLines=0;rowLines=0;fontSize=12;" vertex="1" parent="1">
                    <mxGeometry x="862.5" y="846" width="275" height="323" as="geometry"/>
                </mxCell>
                <mxCell id="282" value="" style="shape=partialRectangle;html=1;whiteSpace=wrap;collapsible=0;dropTarget=0;pointerEvents=0;fillColor=none;top=0;left=0;bottom=0;right=0;points=[[0,0.5],[1,0.5]];portConstraint=eastwest;fontSize=12;" vertex="1" parent="281">
                    <mxGeometry width="275" height="41" as="geometry"/>
                </mxCell>
                <mxCell id="283" value="&lt;b&gt;控除&lt;/b&gt;" style="shape=partialRectangle;html=1;whiteSpace=wrap;connectable=0;fillColor=none;top=0;left=0;bottom=0;right=0;overflow=hidden;pointerEvents=1;fontSize=12;" vertex="1" parent="282">
                    <mxGeometry width="139" height="41" as="geometry">
                        <mxRectangle width="139" height="41" as="alternateBounds"/>
                    </mxGeometry>
                </mxCell>
                <mxCell id="284" value="&lt;b&gt;100,000円&lt;/b&gt;" style="shape=partialRectangle;html=1;whiteSpace=wrap;connectable=0;fillColor=none;top=0;left=0;bottom=0;right=0;overflow=hidden;pointerEvents=1;fontSize=12;" vertex="1" parent="282">
                    <mxGeometry x="139" width="136" height="41" as="geometry">
                        <mxRectangle width="136" height="41" as="alternateBounds"/>
                    </mxGeometry>
                </mxCell>
                <mxCell id="285" value="" style="shape=partialRectangle;html=1;whiteSpace=wrap;collapsible=0;dropTarget=0;pointerEvents=0;fillColor=none;top=0;left=0;bottom=0;right=0;points=[[0,0.5],[1,0.5]];portConstraint=eastwest;fontSize=12;" vertex="1" parent="281">
                    <mxGeometry y="41" width="275" height="39" as="geometry"/>
                </mxCell>
                <mxCell id="286" value="所得税" style="shape=partialRectangle;html=1;whiteSpace=wrap;connectable=0;fillColor=none;top=0;left=0;bottom=0;right=0;overflow=hidden;pointerEvents=1;fontSize=12;" vertex="1" parent="285">
                    <mxGeometry width="139" height="39" as="geometry">
                        <mxRectangle width="139" height="39" as="alternateBounds"/>
                    </mxGeometry>
                </mxCell>
                <mxCell id="287" value="200,000円" style="shape=partialRectangle;html=1;whiteSpace=wrap;connectable=0;fillColor=none;top=0;left=0;bottom=0;right=0;overflow=hidden;pointerEvents=1;fontSize=12;" vertex="1" parent="285">
                    <mxGeometry x="139" width="136" height="39" as="geometry">
                        <mxRectangle width="136" height="39" as="alternateBounds"/>
                    </mxGeometry>
                </mxCell>
                <mxCell id="288" value="" style="shape=partialRectangle;html=1;whiteSpace=wrap;collapsible=0;dropTarget=0;pointerEvents=0;fillColor=none;top=0;left=0;bottom=0;right=0;points=[[0,0.5],[1,0.5]];portConstraint=eastwest;fontSize=12;" vertex="1" parent="281">
                    <mxGeometry y="80" width="275" height="41" as="geometry"/>
                </mxCell>
                <mxCell id="289" value="住民税" style="shape=partialRectangle;html=1;whiteSpace=wrap;connectable=0;fillColor=none;top=0;left=0;bottom=0;right=0;overflow=hidden;pointerEvents=1;fontSize=12;" vertex="1" parent="288">
                    <mxGeometry width="139" height="41" as="geometry">
                        <mxRectangle width="139" height="41" as="alternateBounds"/>
                    </mxGeometry>
                </mxCell>
                <mxCell id="290" value="200,000円" style="shape=partialRectangle;html=1;whiteSpace=wrap;connectable=0;fillColor=none;top=0;left=0;bottom=0;right=0;overflow=hidden;pointerEvents=1;fontSize=12;" vertex="1" parent="288">
                    <mxGeometry x="139" width="136" height="41" as="geometry">
                        <mxRectangle width="136" height="41" as="alternateBounds"/>
                    </mxGeometry>
                </mxCell>
                <mxCell id="291" style="shape=partialRectangle;html=1;whiteSpace=wrap;collapsible=0;dropTarget=0;pointerEvents=0;fillColor=none;top=0;left=0;bottom=0;right=0;points=[[0,0.5],[1,0.5]];portConstraint=eastwest;fontSize=12;" vertex="1" parent="281">
                    <mxGeometry y="121" width="275" height="41" as="geometry"/>
                </mxCell>
                <mxCell id="292" value="健康保険料" style="shape=partialRectangle;html=1;whiteSpace=wrap;connectable=0;fillColor=none;top=0;left=0;bottom=0;right=0;overflow=hidden;pointerEvents=1;fontSize=12;" vertex="1" parent="291">
                    <mxGeometry width="139" height="41" as="geometry">
                        <mxRectangle width="139" height="41" as="alternateBounds"/>
                    </mxGeometry>
                </mxCell>
                <mxCell id="293" value="&lt;span&gt;200,000円&lt;/span&gt;" style="shape=partialRectangle;html=1;whiteSpace=wrap;connectable=0;fillColor=none;top=0;left=0;bottom=0;right=0;overflow=hidden;pointerEvents=1;fontSize=12;" vertex="1" parent="291">
                    <mxGeometry x="139" width="136" height="41" as="geometry">
                        <mxRectangle width="136" height="41" as="alternateBounds"/>
                    </mxGeometry>
                </mxCell>
                <mxCell id="294" style="shape=partialRectangle;html=1;whiteSpace=wrap;collapsible=0;dropTarget=0;pointerEvents=0;fillColor=none;top=0;left=0;bottom=0;right=0;points=[[0,0.5],[1,0.5]];portConstraint=eastwest;fontSize=12;" vertex="1" parent="281">
                    <mxGeometry y="162" width="275" height="41" as="geometry"/>
                </mxCell>
                <mxCell id="295" value="年金保険料" style="shape=partialRectangle;html=1;whiteSpace=wrap;connectable=0;fillColor=none;top=0;left=0;bottom=0;right=0;overflow=hidden;pointerEvents=1;fontSize=12;" vertex="1" parent="294">
                    <mxGeometry width="139" height="41" as="geometry">
                        <mxRectangle width="139" height="41" as="alternateBounds"/>
                    </mxGeometry>
                </mxCell>
                <mxCell id="296" value="&lt;span&gt;200,000円&lt;/span&gt;" style="shape=partialRectangle;html=1;whiteSpace=wrap;connectable=0;fillColor=none;top=0;left=0;bottom=0;right=0;overflow=hidden;pointerEvents=1;fontSize=12;" vertex="1" parent="294">
                    <mxGeometry x="139" width="136" height="41" as="geometry">
                        <mxRectangle width="136" height="41" as="alternateBounds"/>
                    </mxGeometry>
                </mxCell>
                <mxCell id="297" style="shape=partialRectangle;html=1;whiteSpace=wrap;collapsible=0;dropTarget=0;pointerEvents=0;fillColor=none;top=0;left=0;bottom=0;right=0;points=[[0,0.5],[1,0.5]];portConstraint=eastwest;fontSize=12;" vertex="1" parent="281">
                    <mxGeometry y="203" width="275" height="40" as="geometry"/>
                </mxCell>
                <mxCell id="298" value="雇用保険料" style="shape=partialRectangle;html=1;whiteSpace=wrap;connectable=0;fillColor=none;top=0;left=0;bottom=0;right=0;overflow=hidden;pointerEvents=1;fontSize=12;" vertex="1" parent="297">
                    <mxGeometry width="139" height="40" as="geometry">
                        <mxRectangle width="139" height="40" as="alternateBounds"/>
                    </mxGeometry>
                </mxCell>
                <mxCell id="299" value="&lt;span&gt;200,000円&lt;/span&gt;" style="shape=partialRectangle;html=1;whiteSpace=wrap;connectable=0;fillColor=none;top=0;left=0;bottom=0;right=0;overflow=hidden;pointerEvents=1;fontSize=12;" vertex="1" parent="297">
                    <mxGeometry x="139" width="136" height="40" as="geometry">
                        <mxRectangle width="136" height="40" as="alternateBounds"/>
                    </mxGeometry>
                </mxCell>
                <mxCell id="300" style="shape=partialRectangle;html=1;whiteSpace=wrap;collapsible=0;dropTarget=0;pointerEvents=0;fillColor=none;top=0;left=0;bottom=0;right=0;points=[[0,0.5],[1,0.5]];portConstraint=eastwest;fontSize=12;" vertex="1" parent="281">
                    <mxGeometry y="243" width="275" height="40" as="geometry"/>
                </mxCell>
                <mxCell id="301" value="労働組合費" style="shape=partialRectangle;html=1;whiteSpace=wrap;connectable=0;fillColor=none;top=0;left=0;bottom=0;right=0;overflow=hidden;pointerEvents=1;fontSize=12;" vertex="1" parent="300">
                    <mxGeometry width="139" height="40" as="geometry">
                        <mxRectangle width="139" height="40" as="alternateBounds"/>
                    </mxGeometry>
                </mxCell>
                <mxCell id="302" value="&lt;span&gt;200,000円&lt;/span&gt;" style="shape=partialRectangle;html=1;whiteSpace=wrap;connectable=0;fillColor=none;top=0;left=0;bottom=0;right=0;overflow=hidden;pointerEvents=1;fontSize=12;" vertex="1" parent="300">
                    <mxGeometry x="139" width="136" height="40" as="geometry">
                        <mxRectangle width="136" height="40" as="alternateBounds"/>
                    </mxGeometry>
                </mxCell>
                <mxCell id="303" style="shape=partialRectangle;html=1;whiteSpace=wrap;collapsible=0;dropTarget=0;pointerEvents=0;fillColor=none;top=0;left=0;bottom=0;right=0;points=[[0,0.5],[1,0.5]];portConstraint=eastwest;fontSize=12;" vertex="1" parent="281">
                    <mxGeometry y="283" width="275" height="40" as="geometry"/>
                </mxCell>
                <mxCell id="304" value="その他" style="shape=partialRectangle;html=1;whiteSpace=wrap;connectable=0;fillColor=none;top=0;left=0;bottom=0;right=0;overflow=hidden;pointerEvents=1;fontSize=12;" vertex="1" parent="303">
                    <mxGeometry width="139" height="40" as="geometry">
                        <mxRectangle width="139" height="40" as="alternateBounds"/>
                    </mxGeometry>
                </mxCell>
                <mxCell id="305" value="&lt;span&gt;200,000円&lt;/span&gt;" style="shape=partialRectangle;html=1;whiteSpace=wrap;connectable=0;fillColor=none;top=0;left=0;bottom=0;right=0;overflow=hidden;pointerEvents=1;fontSize=12;" vertex="1" parent="303">
                    <mxGeometry x="139" width="136" height="40" as="geometry">
                        <mxRectangle width="136" height="40" as="alternateBounds"/>
                    </mxGeometry>
                </mxCell>
                <mxCell id="306" value="" style="rounded=1;whiteSpace=wrap;html=1;fontSize=12;fillColor=none;" vertex="1" parent="1">
                    <mxGeometry x="1025" y="640" width="85" height="20" as="geometry"/>
                </mxCell>
                <mxCell id="307" value="" style="rounded=1;whiteSpace=wrap;html=1;fontSize=12;fillColor=none;" vertex="1" parent="1">
                    <mxGeometry x="1025" y="800" width="85" height="20" as="geometry"/>
                </mxCell>
                <mxCell id="308" value="" style="rounded=1;whiteSpace=wrap;html=1;fontSize=12;fillColor=none;" vertex="1" parent="1">
                    <mxGeometry x="1025" y="900" width="85" height="20" as="geometry"/>
                </mxCell>
                <mxCell id="309" value="" style="rounded=1;whiteSpace=wrap;html=1;fontSize=12;fillColor=none;" vertex="1" parent="1">
                    <mxGeometry x="1025" y="940" width="85" height="20" as="geometry"/>
                </mxCell>
                <mxCell id="310" value="" style="rounded=1;whiteSpace=wrap;html=1;fontSize=12;fillColor=none;" vertex="1" parent="1">
                    <mxGeometry x="1025" y="980" width="85" height="20" as="geometry"/>
                </mxCell>
                <mxCell id="311" value="" style="rounded=1;whiteSpace=wrap;html=1;fontSize=12;fillColor=none;" vertex="1" parent="1">
                    <mxGeometry x="1025" y="1020" width="85" height="20" as="geometry"/>
                </mxCell>
                <mxCell id="312" value="" style="rounded=1;whiteSpace=wrap;html=1;fontSize=12;fillColor=none;" vertex="1" parent="1">
                    <mxGeometry x="1025" y="1060" width="85" height="20" as="geometry"/>
                </mxCell>
                <mxCell id="313" value="" style="rounded=1;whiteSpace=wrap;html=1;fontSize=12;fillColor=none;" vertex="1" parent="1">
                    <mxGeometry x="1025" y="1100" width="85" height="20" as="geometry"/>
                </mxCell>
                <mxCell id="314" value="" style="rounded=1;whiteSpace=wrap;html=1;fontSize=12;fillColor=none;" vertex="1" parent="1">
                    <mxGeometry x="1025" y="1140" width="85" height="20" as="geometry"/>
                </mxCell>
                <mxCell id="315" value="" style="rounded=1;whiteSpace=wrap;html=1;fontSize=12;fillColor=none;" vertex="1" parent="1">
                    <mxGeometry x="1025" y="680" width="85" height="20" as="geometry"/>
                </mxCell>
                <mxCell id="316" value="" style="rounded=1;whiteSpace=wrap;html=1;fontSize=12;fillColor=none;" vertex="1" parent="1">
                    <mxGeometry x="1025" y="720" width="85" height="20" as="geometry"/>
                </mxCell>
                <mxCell id="317" value="" style="rounded=1;whiteSpace=wrap;html=1;fontSize=12;fillColor=none;" vertex="1" parent="1">
                    <mxGeometry x="1025" y="760" width="85" height="20" as="geometry"/>
                </mxCell>
                <mxCell id="321" value="" style="edgeStyle=none;html=1;fontSize=12;entryX=0.5;entryY=1;entryDx=0;entryDy=0;" edge="1" parent="1" source="319" target="145">
                    <mxGeometry relative="1" as="geometry">
                        <mxPoint x="1000" y="1263.5" as="targetPoint"/>
                        <Array as="points">
                            <mxPoint x="1000" y="1260"/>
                            <mxPoint x="600" y="1260"/>
                        </Array>
                    </mxGeometry>
                </mxCell>
                <mxCell id="319" value="保存" style="rounded=1;whiteSpace=wrap;html=1;fontSize=12;fillColor=none;" vertex="1" parent="1">
                    <mxGeometry x="950" y="1183" width="100" height="27" as="geometry"/>
                </mxCell>
                <mxCell id="322" value="" style="edgeStyle=none;html=1;fontSize=12;entryX=-0.012;entryY=0.105;entryDx=0;entryDy=0;entryPerimeter=0;" edge="1" parent="1" source="250" target="255">
                    <mxGeometry relative="1" as="geometry">
                        <Array as="points">
                            <mxPoint x="800" y="505"/>
                            <mxPoint x="800" y="560"/>
                        </Array>
                    </mxGeometry>
                </mxCell>
                <mxCell id="326" value="" style="group" vertex="1" connectable="0" parent="1">
                    <mxGeometry x="460" y="490" width="38" height="43" as="geometry"/>
                </mxCell>
                <mxCell id="323" value="" style="ellipse;whiteSpace=wrap;html=1;aspect=fixed;fontSize=12;fillColor=none;" vertex="1" parent="326">
                    <mxGeometry width="30" height="30" as="geometry"/>
                </mxCell>
                <mxCell id="327" value="" style="triangle;whiteSpace=wrap;html=1;fontSize=12;fillColor=none;direction=west;" vertex="1" parent="326">
                    <mxGeometry x="4" y="6.5" width="16" height="17" as="geometry"/>
                </mxCell>
                <mxCell id="328" value="" style="edgeStyle=none;html=1;fontSize=12;entryX=1.003;entryY=0.086;entryDx=0;entryDy=0;entryPerimeter=0;" edge="1" parent="1" source="323" target="49">
                    <mxGeometry relative="1" as="geometry">
                        <mxPoint x="380" y="540" as="targetPoint"/>
                        <Array as="points">
                            <mxPoint x="380" y="505"/>
                            <mxPoint x="380" y="537"/>
                        </Array>
                    </mxGeometry>
                </mxCell>
                <mxCell id="330" value="" style="edgeStyle=none;html=1;fontSize=12;entryX=0.5;entryY=0;entryDx=0;entryDy=0;exitX=1;exitY=0.5;exitDx=0;exitDy=0;jumpStyle=arc;" edge="1" parent="1" source="12" target="49">
                    <mxGeometry relative="1" as="geometry">
                        <mxPoint x="380" y="245" as="sourcePoint"/>
                        <mxPoint x="360" y="245" as="targetPoint"/>
                        <Array as="points">
                            <mxPoint x="380" y="245"/>
                            <mxPoint x="380" y="440"/>
                            <mxPoint x="200" y="440"/>
                        </Array>
                    </mxGeometry>
                </mxCell>
            </root>
        </mxGraphModel>
    </diagram>
</mxfile>